<?xml version="1.0" standalone="no"?>
<!DOCTYPE svg PUBLIC "-//W3C//DTD SVG 20010904//EN"
 "http://www.w3.org/TR/2001/REC-SVG-20010904/DTD/svg10.dtd">
<svg version="1.0" xmlns="http://www.w3.org/2000/svg"
 width="820.000000pt" height="600.000000pt" viewBox="0 0 820.000000 600.000000"
 preserveAspectRatio="xMidYMid meet">

<g transform="translate(0.000000,600.000000) scale(0.100000,-0.100000)"
fill="#81c784" stroke="none">
<path d="M3409 5376 c-431 -66 -766 -156 -1050 -281 -139 -60 -190 -117 -159
-175 22 -42 153 -105 280 -135 80 -19 284 -29 325 -17 l30 9 -45 12 c-74 19
-190 62 -190 71 0 13 79 29 180 36 52 4 105 10 117 15 20 7 21 12 12 44 -16
58 -6 70 84 103 351 126 845 190 1275 164 223 -14 392 -35 401 -51 4 -6 72
-22 151 -36 229 -39 340 -75 384 -124 37 -41 -22 -60 -218 -71 -136 -8 -183
-18 -159 -33 12 -7 139 -25 250 -36 45 -4 89 -14 98 -21 16 -13 15 -16 -5 -32
-12 -10 -38 -22 -58 -27 -63 -16 -249 -31 -401 -32 -112 0 -140 -3 -121 -11
14 -6 75 -10 135 -9 61 1 223 -3 360 -9 170 -7 291 -7 375 -1 390 31 437 40
494 95 43 40 47 77 14 126 -17 25 -46 44 -119 76 -309 137 -712 251 -1084 308
-309 48 -442 58 -830 62 -350 3 -378 2 -526 -20z"/>
<path d="M3555 4759 c-192 -22 -351 -79 -457 -164 -84 -66 -113 -115 -112
-186 2 -93 39 -156 166 -281 59 -59 108 -111 108 -117 0 -11 -89 -54 -145 -70
-22 -6 -75 -14 -117 -17 -43 -4 -78 -10 -78 -13 0 -3 7 -15 15 -25 20 -27 19
-60 -4 -80 -30 -27 -118 -56 -187 -63 -35 -3 -64 -9 -64 -13 0 -3 14 -16 30
-28 17 -13 30 -29 30 -38 0 -24 -112 -89 -214 -123 -104 -34 -238 -56 -416
-68 l-115 -8 87 -32 c168 -62 309 -87 593 -103 99 -6 208 -13 242 -16 l62 -5
6 -57 c32 -305 144 -536 315 -651 65 -43 169 -81 224 -81 32 0 86 -33 74 -45
-4 -4 -78 -11 -165 -16 -568 -32 -923 -107 -1274 -270 -49 -23 -88 -44 -86
-45 2 -2 55 9 118 25 253 64 505 90 701 72 129 -12 267 -37 282 -51 9 -9 -177
-71 -274 -91 -65 -14 -93 -26 -85 -40 4 -5 18 -9 33 -9 58 0 -2 -22 -203 -74
-328 -84 -416 -108 -412 -112 2 -3 96 3 208 12 256 20 538 14 679 -15 115 -23
205 -53 204 -66 -2 -21 -60 -50 -200 -99 -81 -28 -149 -57 -152 -64 -3 -9 13
-12 57 -12 67 0 131 -21 131 -43 0 -8 -9 -22 -20 -32 -15 -14 -19 -26 -15 -46
7 -32 -16 -93 -48 -127 -12 -13 -48 -40 -79 -59 -32 -20 -58 -38 -58 -40 0 -3
14 -2 30 2 17 4 30 3 30 -2 0 -11 -44 -52 -88 -82 -53 -37 -29 -36 40 1 75 40
223 186 298 294 28 40 94 153 147 251 125 232 171 303 254 388 38 39 78 92 89
118 12 26 22 47 24 47 2 0 16 -19 32 -42 39 -56 99 -98 140 -98 18 0 35 -4 39
-9 11 -19 63 -211 70 -261 l7 -51 77 128 c43 70 114 187 159 258 44 72 85 137
90 145 6 9 22 13 50 12 47 -3 82 11 82 33 0 14 -99 85 -118 85 -5 0 -15 -19
-22 -42 -16 -56 -84 -191 -104 -207 -40 -33 -52 36 -32 187 8 62 18 117 21
122 8 14 38 13 53 -2 15 -15 18 -5 31 118 6 56 16 115 23 130 11 27 12 25 20
-44 9 -86 37 -154 81 -200 46 -48 81 -64 151 -65 78 -2 107 -21 140 -90 35
-76 45 -127 46 -238 0 -225 -78 -487 -222 -744 -74 -132 -199 -316 -353 -520
l-135 -180 32 -28 c18 -15 57 -35 87 -43 49 -15 59 -15 119 0 101 25 148 59
266 197 25 28 31 31 34 17 2 -10 -6 -43 -17 -73 -41 -110 -23 -112 59 -7 121
154 216 393 259 652 26 156 36 249 61 575 20 255 37 411 47 427 12 20 305 -38
477 -93 132 -43 278 -107 271 -119 -3 -5 -52 -11 -109 -15 -102 -7 -139 -16
-118 -29 6 -3 64 -25 129 -47 177 -61 273 -117 260 -152 -7 -18 -329 -101
-472 -122 -134 -20 -152 -28 -94 -43 144 -36 379 -39 544 -7 104 19 259 70
311 100 50 29 111 96 120 130 8 32 -10 75 -44 108 -46 43 -394 169 -652 235
-146 38 -385 79 -515 88 l-100 7 1 384 c1 211 4 386 6 388 1 2 122 8 268 14
605 26 841 57 1099 146 84 28 213 86 207 92 -2 2 -39 -5 -83 -16 -129 -33
-369 -69 -679 -100 -173 -18 -321 -38 -365 -51 -80 -22 -134 -26 -144 -10 -3
5 7 12 22 16 209 46 424 115 499 159 51 30 60 41 44 60 -14 16 -15 16 90 50
151 49 286 132 321 197 18 33 -8 102 -57 157 -76 85 -174 117 -464 150 -241
28 -412 37 -436 23 -16 -10 -14 -11 17 -12 70 0 430 -60 518 -86 103 -30 211
-99 211 -134 0 -30 -54 -66 -127 -85 -141 -36 -153 -43 -115 -64 26 -15 5 -41
-59 -73 -49 -25 -254 -77 -369 -93 -62 -8 -120 -24 -120 -33 0 -4 28 -7 63 -7
92 -1 157 -41 131 -82 -26 -42 -361 -163 -451 -163 -36 0 -37 2 -48 135 -11
121 -64 365 -110 504 -77 229 -191 436 -329 595 -56 65 -133 107 -291 159
-171 57 -246 69 -460 72 -110 2 -236 -1 -280 -6z m585 -157 c153 -29 198 -41
234 -59 51 -26 14 -26 -116 1 -199 41 -280 49 -520 49 -126 0 -226 2 -224 4 2
2 37 10 77 18 106 20 409 13 549 -13z m156 -335 c71 -20 79 -25 130 -93 57
-75 117 -197 146 -299 20 -70 23 -101 22 -245 0 -94 -5 -176 -11 -190 -13 -30
-16 -23 -33 77 -6 40 -16 76 -21 79 -6 3 -6 -11 -2 -38 14 -75 7 -248 -11
-318 -56 -206 -190 -393 -354 -494 -58 -37 -92 -72 -92 -97 0 -6 16 3 35 20
57 50 81 41 59 -21 -20 -56 -19 -57 22 -10 19 23 40 42 45 42 16 0 10 -83 -10
-135 -11 -28 -24 -80 -31 -115 -17 -97 -39 -159 -63 -175 -12 -8 -51 -19 -87
-24 -36 -6 -77 -20 -93 -32 l-29 -21 -30 29 c-17 15 -63 69 -103 118 -40 50
-84 101 -99 114 -35 32 -33 44 3 23 37 -21 54 -7 23 18 -24 20 -51 30 -205 79
-121 38 -220 95 -296 169 -88 87 -128 154 -141 237 -6 39 -18 111 -28 160 -78
408 102 802 463 1014 200 119 337 153 580 147 95 -3 181 -11 211 -19z m408
-61 c3 -13 9 -31 12 -40 9 -22 -8 -20 -50 7 -42 26 -43 29 -13 43 35 18 44 16
51 -10z m-1434 -22 c30 -2 57 -3 59 -4 2 0 -2 -7 -9 -15 -17 -20 -99 -20 -128
1 -29 20 -29 39 1 29 12 -4 47 -9 77 -11z m1594 -420 c17 -16 20 -41 10 -68
-9 -23 -56 -20 -88 5 -30 24 -34 39 -8 39 11 0 27 9 37 20 22 24 29 25 49 4z
m64 -437 c6 -32 -7 -63 -30 -74 -31 -14 -59 -1 -81 35 -18 32 -12 47 13 31 25
-15 52 -10 57 11 7 25 36 22 41 -3z m6 -393 c12 -31 6 -71 -15 -90 -19 -17
-22 -17 -47 -2 -15 10 -44 26 -64 38 -48 26 -48 39 0 33 28 -4 43 0 62 16 30
25 56 27 64 5z m10 -370 c11 -29 6 -61 -13 -78 -25 -23 -52 -17 -70 15 -14 25
-13 28 15 53 33 29 59 33 68 10z"/>
<path d="M4495 3809 c-14 -22 -6 -77 17 -120 l23 -44 3 67 c4 83 -20 135 -43
97z"/>
<path d="M4091 3659 c-40 -16 -82 -50 -112 -92 -39 -53 -37 -68 4 -30 53 50
118 92 159 103 21 6 38 15 38 20 0 13 -57 12 -89 -1z"/>
<path d="M4227 3566 c-151 -63 -274 -234 -311 -434 -21 -112 -36 -231 -36
-279 0 -23 -9 -65 -20 -93 -11 -27 -17 -50 -14 -50 20 0 47 27 68 68 23 46 25
47 90 60 37 7 96 25 131 41 65 30 160 90 152 97 -2 2 -35 -12 -73 -31 -38 -19
-85 -38 -104 -41 l-35 -6 50 35 c68 47 155 142 204 224 35 59 41 64 41 40 0
-53 18 -17 30 62 10 64 10 97 0 168 -7 48 -14 104 -14 123 -2 35 -2 35 -51 37
-35 2 -68 -4 -108 -21z m91 -28 c25 -25 13 -44 -35 -56 -27 -6 -70 -21 -98
-33 -27 -13 -54 -25 -60 -27 -35 -15 70 75 115 98 64 34 63 33 78 18z"/>
<path d="M3846 3149 c-17 -60 -46 -229 -46 -271 0 -16 4 -28 9 -28 17 0 29 63
36 179 4 63 11 126 16 139 5 14 7 27 5 29 -3 3 -12 -19 -20 -48z"/>
<path d="M3124 3031 c10 -53 70 -171 116 -225 43 -52 144 -136 163 -136 7 0 7
4 -1 12 -24 24 -11 26 45 7 31 -10 69 -19 84 -19 36 0 46 -15 16 -25 -22 -8
-22 -8 3 -12 14 -2 52 5 84 17 33 11 69 20 82 20 13 0 26 5 29 10 4 6 -6 10
-22 10 -20 1 -49 19 -98 61 -75 64 -125 91 -260 140 -99 36 -182 88 -221 139
l-26 35 6 -34z m156 -137 c25 -9 54 -24 65 -32 18 -12 16 -13 -25 -7 -50 8
-101 33 -108 54 -3 9 0 12 9 9 8 -3 34 -14 59 -24z"/>
<path d="M3450 2930 c0 -5 30 -27 68 -49 37 -22 82 -54 101 -71 18 -17 35 -29
38 -27 10 11 -23 58 -56 81 -47 32 -151 77 -151 66z"/>
<path d="M3865 2569 c9 -30 31 -54 38 -42 8 12 -15 55 -32 61 -10 3 -11 -2 -6
-19z"/>
<path d="M3785 2557 c-10 -23 1 -63 20 -71 19 -7 19 18 1 59 -12 25 -15 27
-21 12z"/>
<path d="M3893 2420 c-39 -17 -61 -49 -48 -70 3 -5 19 -1 38 10 18 11 49 20
69 20 56 0 60 28 7 49 -19 7 -36 5 -66 -9z"/>
<path d="M2330 3098 c-41 -45 -80 -89 -87 -98 -6 -9 -21 -113 -32 -231 -12
-118 -28 -272 -36 -344 -8 -71 -15 -133 -15 -137 0 -4 15 1 33 12 48 28 200
85 297 111 47 12 90 27 96 33 7 6 33 68 59 138 61 164 75 177 76 72 0 -44 4
-99 8 -124 7 -44 7 -45 20 -20 8 14 15 27 17 29 2 2 17 -8 34 -23 38 -32 46
-32 55 -3 l7 22 7 -25 7 -25 12 22 c7 12 12 37 12 57 0 82 27 31 31 -59 1 -19
5 -10 10 25 5 30 6 133 3 229 -6 163 -8 177 -31 210 -14 20 -36 57 -49 83 -23
45 -25 47 -96 63 -145 33 -310 65 -336 65 -21 0 -44 -19 -102 -82z"/>
<path d="M2148 3093 c-93 -97 -98 -109 -99 -255 0 -68 -6 -221 -12 -340 l-12
-217 -55 -56 c-30 -30 -50 -55 -44 -55 14 0 83 46 121 81 l29 26 12 264 c7
145 12 308 12 361 l0 97 45 51 c98 111 101 144 3 43z"/>
<path d="M6040 3134 c0 -3 27 -40 60 -83 l60 -77 10 -100 c5 -54 15 -215 22
-357 l12 -259 40 -20 c23 -11 53 -32 69 -46 39 -37 33 -17 -10 37 l-38 45 -6
231 c-7 220 -19 354 -39 424 -5 18 -41 66 -80 107 -38 41 -70 78 -70 83 0 5
-7 11 -15 15 -8 3 -15 3 -15 0z"/>
<path d="M5825 3108 c-22 -5 -79 -18 -128 -30 -98 -23 -100 -25 -160 -144 -35
-70 -35 -70 -44 -260 -5 -104 -6 -193 -1 -198 4 -6 8 11 8 36 0 55 26 198 38
210 5 5 12 -39 16 -99 4 -59 11 -124 15 -143 9 -32 10 -33 16 -12 5 15 13 21
23 17 8 -3 21 0 28 6 10 8 17 2 31 -27 17 -36 23 -40 118 -70 55 -17 145 -48
199 -68 78 -28 102 -34 108 -24 12 17 2 405 -13 523 -11 88 -12 90 -80 181
-87 118 -93 122 -174 102z"/>
<path d="M5447 3049 c-31 -28 -63 -61 -69 -72 -8 -14 -14 -96 -18 -221 -7
-231 -4 -225 -109 -227 l-66 -2 57 -9 c35 -6 72 -7 95 -1 36 8 38 11 50 68 7
33 16 125 19 205 7 156 7 158 73 234 38 43 52 76 34 76 -5 0 -34 -23 -66 -51z"/>
<path d="M3024 2620 c4 -63 10 -118 14 -121 4 -4 34 -11 66 -14 68 -9 71 7 6
25 -29 8 -40 16 -40 30 0 26 -38 181 -46 189 -4 3 -4 -46 0 -109z"/>
<path d="M4498 2031 c-14 -16 -29 -47 -33 -68 -14 -75 -78 -260 -126 -362 -54
-115 -137 -245 -216 -338 -61 -72 -67 -86 -20 -48 129 107 288 350 361 555 38
103 78 272 67 283 -4 4 -20 -5 -33 -22z"/>
<path d="M3680 1848 c-32 -135 -130 -304 -275 -471 -42 -49 -74 -91 -71 -95
10 -10 65 49 128 138 34 47 82 110 108 140 101 118 163 242 151 302 -10 50
-28 44 -41 -14z"/>
</g>
</svg>
