<svg id="svg" version="1.1" xmlns="http://www.w3.org/2000/svg" xmlns:xlink="http://www.w3.org/1999/xlink" width="400" height="309.09090909090907" viewBox="0, 0, 400,309.09090909090907"><g id="svgg"><path id="path0" d="M258.127 19.683 C 257.402 20.605,254.326 26.885,253.081 29.985 C 252.638 31.090,251.764 33.315,251.140 34.930 C 249.939 38.039,247.575 42.714,245.904 45.286 C 240.813 53.119,239.462 55.244,238.003 57.721 C 236.148 60.867,236.020 60.956,235.062 59.754 L 234.397 58.920 233.636 60.140 C 232.000 62.763,231.194 64.506,229.826 68.384 C 228.843 71.169,227.868 71.170,227.146 68.388 C 226.641 66.440,223.502 72.092,222.982 75.887 C 222.749 77.586,222.214 77.683,221.255 76.202 C 220.376 74.845,220.289 74.851,219.205 76.347 C 217.949 78.080,216.692 82.734,216.692 85.648 C 216.692 86.307,215.809 85.858,215.076 84.827 L 214.287 83.719 213.419 84.807 C 212.410 86.071,211.464 89.165,211.448 91.249 C 211.435 93.076,211.011 93.344,209.870 92.251 C 209.375 91.777,208.918 91.449,208.852 91.522 C 208.193 92.256,207.596 94.328,207.224 97.166 C 206.687 101.264,206.703 101.242,205.386 99.725 C 203.274 97.293,201.976 100.202,201.024 109.494 C 200.820 111.495,200.440 111.523,198.740 109.662 L 197.897 108.739 197.438 109.470 C 196.226 111.400,195.194 116.839,195.515 119.603 C 195.773 121.827,195.444 122.117,194.052 120.894 C 192.532 119.560,191.616 121.862,191.171 128.128 C 190.794 133.439,190.415 134.140,188.829 132.457 C 188.268 131.862,187.713 131.376,187.596 131.376 C 187.026 131.376,185.830 137.001,185.559 140.958 C 185.397 143.321,185.158 143.680,184.192 143.003 C 182.315 141.689,181.526 143.888,181.868 149.476 C 182.079 152.935,181.971 153.169,180.514 152.390 C 178.949 151.552,178.346 155.498,179.050 161.978 C 179.151 162.905,178.083 163.223,177.447 162.457 C 176.207 160.963,175.716 162.411,175.787 167.347 L 175.840 171.016 174.810 170.849 L 173.780 170.681 173.249 172.848 C 172.864 174.417,172.784 175.455,172.959 176.611 C 173.092 177.489,173.214 178.903,173.231 179.753 L 173.261 181.298 172.114 181.232 C 170.583 181.143,170.427 181.994,170.941 187.615 C 171.371 192.316,171.186 193.313,169.919 193.138 C 169.131 193.029,168.911 194.545,168.787 200.927 C 168.700 205.352,168.538 205.999,167.485 206.123 C 166.588 206.228,166.624 205.967,166.118 216.151 C 165.927 220.011,165.908 220.093,165.206 220.093 C 164.386 220.093,164.297 220.510,163.986 225.811 C 163.796 229.054,163.317 232.275,162.904 233.098 C 162.770 233.365,162.731 234.214,162.818 234.985 C 162.970 236.337,162.269 242.440,161.670 244.977 C 161.510 245.657,161.080 247.813,160.717 249.768 C 159.890 254.210,159.481 254.618,158.258 252.219 C 157.731 251.187,157.641 250.431,157.664 247.217 C 157.678 245.135,157.687 242.875,157.682 242.195 C 157.673 240.741,158.771 235.106,159.231 234.248 C 159.456 233.827,159.442 233.526,159.182 233.213 C 158.653 232.576,159.069 229.769,160.187 226.430 C 160.999 224.006,161.077 223.487,160.794 222.397 C 160.416 220.943,160.581 220.070,161.962 216.229 C 163.406 212.208,163.587 211.343,163.044 211.039 C 162.347 210.649,162.617 208.917,164.286 203.091 C 164.627 201.899,164.719 200.744,164.593 199.227 C 164.466 197.701,164.554 196.608,164.892 195.518 C 165.510 193.526,165.546 190.726,164.953 190.726 C 163.886 190.726,163.792 189.942,164.456 186.600 C 165.303 182.344,165.213 180.329,164.185 180.474 C 163.321 180.595,163.336 180.252,164.413 175.028 C 165.415 170.174,165.364 169.726,163.833 169.931 C 162.412 170.122,162.206 169.506,163.021 167.503 C 164.466 163.951,164.319 158.961,162.774 159.146 L 161.901 159.251 162.171 156.828 C 162.483 154.040,162.532 149.136,162.252 148.856 C 162.148 148.752,161.632 148.914,161.106 149.216 C 159.739 150.000,159.522 149.580,159.877 146.832 C 160.177 144.512,160.059 139.245,159.700 138.886 C 159.595 138.781,159.265 138.905,158.966 139.162 C 157.264 140.623,157.201 140.440,157.621 135.240 C 158.053 129.884,157.419 126.631,156.165 127.766 C 154.823 128.981,154.715 128.626,154.704 122.952 C 154.692 116.083,154.228 114.794,152.339 116.383 C 150.950 117.552,150.913 117.462,150.938 113.060 C 150.972 107.082,150.252 105.039,148.576 106.357 C 147.321 107.344,147.141 106.926,147.133 102.996 C 147.123 97.725,146.552 95.763,145.346 96.854 C 144.264 97.833,143.741 97.526,143.729 95.904 C 143.712 93.598,142.476 88.640,141.700 87.765 C 141.462 87.497,141.267 87.149,141.267 86.991 C 141.267 86.392,138.034 76.807,136.010 71.406 C 135.469 69.961,134.410 67.040,133.658 64.915 C 131.434 58.632,128.546 54.310,126.167 53.704 C 125.364 53.500,125.363 53.471,126.292 55.951 C 127.286 58.605,128.568 64.165,129.419 69.524 C 129.678 71.154,130.072 73.532,130.294 74.807 C 131.103 79.456,131.349 81.554,131.688 86.708 C 131.879 89.598,132.114 92.817,132.210 93.861 C 132.366 95.547,132.320 95.780,131.793 95.947 C 130.411 96.386,130.289 104.887,131.627 107.486 C 132.355 108.901,131.323 109.174,129.528 108.042 L 128.311 107.273 128.101 108.394 C 127.629 110.908,128.538 115.834,130.302 120.325 C 130.572 121.012,129.643 121.054,128.130 120.422 L 127.068 119.978 126.864 121.069 C 126.593 122.510,126.952 125.858,127.549 127.464 C 128.555 130.171,128.539 130.259,127.093 130.028 L 125.811 129.823 125.818 130.986 C 125.823 131.947,126.752 135.030,127.830 137.663 C 128.033 138.159,127.929 138.219,127.014 138.127 C 125.272 137.952,125.496 141.091,127.565 145.835 C 128.795 148.655,128.772 148.917,127.337 148.417 C 126.069 147.975,125.811 148.167,125.813 149.555 C 125.816 151.572,126.953 154.843,128.321 156.771 C 129.155 157.947,129.047 158.269,127.821 158.269 C 125.802 158.269,126.604 161.698,129.881 167.079 C 131.002 168.920,130.558 169.395,128.468 168.593 C 126.951 168.011,128.262 173.110,130.999 178.439 C 131.064 178.566,130.689 178.671,130.165 178.671 C 128.280 178.671,129.017 182.145,131.750 186.149 C 132.435 187.152,132.944 188.008,132.881 188.051 C 132.818 188.093,132.392 188.289,131.934 188.485 C 130.728 189.003,131.227 190.463,134.410 195.732 C 136.143 198.602,136.207 198.761,135.626 198.768 C 134.034 198.788,134.337 199.877,137.364 205.020 C 139.339 208.376,139.356 208.443,138.408 209.108 L 137.713 209.595 138.712 211.521 C 139.261 212.580,140.188 214.171,140.772 215.056 C 142.680 217.951,143.621 219.875,143.199 220.015 C 142.582 220.221,142.683 220.453,145.285 224.785 C 147.375 228.266,147.730 229.051,147.578 229.862 C 147.427 230.665,147.807 231.543,149.905 235.247 C 151.284 237.680,152.358 239.822,152.292 240.006 C 152.226 240.190,152.375 240.744,152.625 241.237 C 153.522 243.012,155.934 251.363,155.728 251.981 C 155.478 252.730,153.630 250.534,152.267 247.867 C 151.465 246.298,150.401 244.499,149.902 243.869 C 149.404 243.239,148.995 242.648,148.995 242.554 C 148.995 242.461,148.238 241.090,147.313 239.507 C 146.387 237.925,145.480 235.961,145.298 235.143 C 144.908 233.400,144.520 232.732,142.213 229.839 C 139.814 226.831,138.521 224.771,138.303 223.610 C 138.201 223.064,137.771 222.293,137.347 221.896 C 136.589 221.185,135.411 218.965,135.376 218.178 C 135.332 217.206,133.936 214.968,133.134 214.584 C 132.138 214.107,130.448 211.915,130.448 211.100 C 130.448 210.796,130.325 210.470,130.173 210.377 C 130.022 210.283,129.803 209.823,129.686 209.354 C 129.385 208.150,127.998 206.417,127.491 206.611 C 126.977 206.809,126.293 205.845,124.727 202.716 C 123.439 200.143,122.932 199.713,122.088 200.476 C 121.789 200.747,121.477 200.854,121.394 200.716 C 121.310 200.577,120.721 199.490,120.084 198.300 C 117.541 193.547,116.535 192.399,115.670 193.263 C 115.144 193.789,114.742 193.299,112.829 189.799 C 109.395 183.519,108.862 182.889,107.790 183.849 C 107.214 184.364,107.170 184.363,106.839 183.825 C 103.802 178.886,102.123 177.007,101.001 177.289 C 100.327 177.458,100.152 177.314,99.574 176.121 C 98.792 174.505,96.810 172.108,96.444 172.335 C 96.302 172.422,95.913 172.148,95.581 171.725 C 95.248 171.302,94.185 170.089,93.218 169.028 C 91.162 166.771,87.110 161.387,84.656 157.651 C 81.940 153.515,80.538 151.340,80.371 151.000 C 79.788 149.815,75.296 143.431,75.045 143.431 C 73.614 143.431,75.927 151.550,79.549 159.239 C 81.788 163.992,83.483 167.620,84.078 168.934 C 85.840 172.819,89.026 179.307,89.696 180.371 C 90.502 181.652,90.530 182.380,89.773 182.380 C 88.532 182.380,91.993 189.056,94.409 191.321 C 95.416 192.265,95.423 192.770,94.433 193.018 L 93.657 193.213 94.256 194.387 C 94.951 195.749,96.888 198.259,98.450 199.820 C 99.774 201.145,99.815 201.546,98.627 201.546 C 96.581 201.546,97.967 204.472,102.065 208.802 C 104.929 211.829,105.233 212.362,104.096 212.369 C 101.435 212.388,102.682 214.861,106.581 217.297 C 108.100 218.245,108.181 218.356,107.727 218.857 C 107.038 219.618,108.191 220.924,111.336 222.947 C 113.826 224.548,114.089 224.844,113.292 225.150 C 111.992 225.649,113.658 227.357,117.300 229.258 C 119.609 230.464,120.084 230.889,119.631 231.343 C 118.862 232.112,121.407 234.076,125.270 235.695 C 126.736 236.309,127.357 236.732,127.357 237.118 C 127.357 237.897,128.411 238.632,131.506 240.011 C 133.678 240.979,134.175 241.322,134.057 241.772 C 133.911 242.331,135.638 243.685,138.099 244.943 C 138.651 245.225,139.104 245.633,139.104 245.848 C 139.104 246.182,145.115 249.459,145.727 249.459 C 146.160 249.459,151.777 252.346,151.777 252.569 C 151.777 252.790,149.264 251.937,148.140 251.334 C 147.845 251.177,146.770 250.739,145.750 250.362 C 144.730 249.984,143.457 249.488,142.921 249.258 C 142.385 249.029,141.792 248.841,141.603 248.841 C 141.414 248.841,141.017 248.708,140.722 248.545 C 139.611 247.933,135.310 246.643,134.903 246.799 C 134.669 246.889,133.536 246.606,132.386 246.170 C 128.342 244.637,125.945 244.194,125.283 244.857 C 125.031 245.108,123.592 245.103,119.888 244.836 C 106.832 243.893,103.230 244.107,98.068 246.130 C 94.928 247.361,94.845 247.718,97.759 247.456 C 100.604 247.200,104.159 247.635,112.674 249.283 C 117.448 250.207,119.448 250.716,119.923 251.128 C 120.186 251.357,121.341 251.716,122.488 251.927 C 123.748 252.159,124.575 252.464,124.575 252.698 C 124.575 253.135,126.570 253.478,129.120 253.478 C 130.808 253.478,133.839 254.267,134.195 254.799 C 134.301 254.957,135.870 255.161,137.682 255.254 C 139.495 255.346,141.051 255.541,141.141 255.686 C 141.230 255.832,142.520 255.951,144.006 255.951 C 145.605 255.951,146.851 256.093,147.058 256.300 C 147.318 256.561,148.009 256.561,149.760 256.300 C 153.694 255.715,154.895 255.820,156.282 256.869 C 156.950 257.375,157.662 257.792,157.864 257.797 C 158.759 257.818,158.652 258.356,156.575 264.297 C 156.307 265.062,155.972 265.966,155.829 266.306 C 155.686 266.646,155.258 267.759,154.878 268.779 C 154.497 269.799,153.992 271.072,153.755 271.608 C 153.517 272.144,153.323 272.688,153.323 272.818 C 153.323 273.342,150.130 281.069,148.186 285.246 C 147.611 286.483,147.141 287.551,147.141 287.619 C 147.141 287.813,149.045 288.717,149.452 288.717 C 150.117 288.717,153.637 280.564,155.657 274.343 C 156.537 271.632,160.737 259.562,160.834 259.465 C 160.891 259.408,161.345 259.490,161.844 259.647 C 162.343 259.804,163.320 260.079,164.014 260.257 C 165.466 260.630,167.304 261.796,169.053 263.453 C 169.722 264.087,170.507 264.606,170.798 264.606 C 171.088 264.606,172.575 265.795,174.102 267.248 C 175.794 268.858,177.087 269.854,177.414 269.798 C 177.711 269.748,179.542 270.915,181.515 272.412 C 183.476 273.899,185.256 275.116,185.470 275.116 C 185.685 275.116,186.528 275.595,187.343 276.180 C 193.160 280.359,195.287 281.607,196.591 281.607 C 197.065 281.607,198.993 282.548,201.105 283.807 C 208.557 288.255,212.086 289.819,215.402 290.143 L 217.465 290.345 214.817 288.447 C 213.361 287.403,210.440 285.008,208.326 283.123 C 201.442 276.986,197.781 273.852,196.539 273.030 C 195.696 272.472,195.364 272.055,195.463 271.678 C 195.662 270.915,195.105 270.512,190.827 268.329 C 188.757 267.273,186.990 266.217,186.900 265.984 C 186.455 264.823,175.636 260.500,169.552 259.051 C 164.417 257.828,165.030 257.424,171.252 257.930 C 175.027 258.237,175.528 258.348,176.507 259.097 C 178.973 260.983,182.474 262.315,182.755 261.473 C 182.841 261.214,183.032 261.212,183.476 261.462 C 183.808 261.649,184.706 262.073,185.471 262.405 C 186.236 262.737,187.893 263.502,189.153 264.107 C 191.262 265.119,191.475 265.164,191.828 264.682 C 192.185 264.194,192.329 264.207,193.931 264.871 C 197.221 266.234,200.927 266.913,200.927 266.151 C 200.927 265.684,202.110 265.785,204.173 266.428 C 208.440 267.758,211.414 267.563,210.817 265.991 C 210.468 265.073,210.766 265.036,214.305 265.562 C 217.517 266.040,219.342 265.653,219.262 264.511 L 219.204 263.679 221.580 263.656 C 224.018 263.632,226.797 262.801,226.028 262.326 C 224.882 261.617,225.697 261.206,228.246 261.206 C 232.649 261.206,234.736 260.364,233.559 259.063 C 232.790 258.213,232.971 258.092,235.454 257.795 C 242.959 256.896,243.488 256.743,243.643 255.425 C 243.726 254.714,243.948 254.541,245.131 254.265 C 248.836 253.400,252.264 252.086,252.136 251.580 C 251.931 250.770,252.217 250.599,255.641 249.489 C 257.427 248.910,259.304 248.265,259.815 248.056 C 260.325 247.846,261.646 247.367,262.751 246.991 C 263.856 246.615,265.039 246.184,265.379 246.034 C 266.105 245.713,267.989 245.236,270.788 244.665 C 281.287 242.522,284.021 241.810,285.754 240.766 L 286.655 240.223 285.909 240.036 C 281.580 238.953,253.158 241.081,246.988 242.950 C 245.181 243.497,244.204 243.380,244.204 242.616 C 244.204 241.654,241.112 241.969,238.022 243.245 C 235.288 244.373,234.321 244.457,234.093 243.586 C 233.826 242.567,232.288 242.726,228.492 244.163 C 226.868 244.778,226.828 244.778,225.710 244.202 C 224.577 243.618,222.100 243.791,221.175 244.519 C 220.267 245.233,218.246 245.460,217.449 244.938 C 216.687 244.438,216.495 244.453,213.255 245.268 C 210.331 246.002,209.732 246.068,208.935 245.737 C 208.208 245.436,207.833 245.434,207.189 245.728 C 206.738 245.933,204.901 246.224,203.107 246.374 C 199.133 246.707,197.050 247.096,195.827 247.735 C 195.317 248.001,194.265 248.220,193.490 248.221 C 192.714 248.222,191.184 248.575,190.090 249.006 C 188.995 249.437,187.264 249.978,186.244 250.208 C 185.224 250.439,183.555 250.910,182.535 251.255 C 181.515 251.600,179.567 252.109,178.207 252.386 C 176.847 252.662,174.681 253.299,173.395 253.801 C 172.108 254.303,170.767 254.714,170.414 254.714 C 170.062 254.714,169.167 254.989,168.426 255.326 C 164.486 257.113,165.368 254.749,169.397 252.721 C 170.332 252.250,171.377 251.609,171.719 251.296 C 172.061 250.983,173.661 250.154,175.274 249.454 C 179.389 247.669,179.568 247.570,179.758 246.971 C 179.939 246.399,180.723 246.260,185.935 245.875 C 189.051 245.645,190.108 245.350,190.108 244.714 C 190.108 244.198,191.716 243.821,192.780 244.088 C 194.346 244.481,199.470 243.523,200.238 242.694 C 200.942 241.934,202.415 241.495,206.646 240.785 C 209.892 240.240,210.510 239.946,210.510 238.950 C 210.510 238.091,210.557 238.066,212.597 237.870 C 218.298 237.321,220.593 236.446,220.470 234.869 C 220.393 233.880,220.472 233.751,221.243 233.610 C 226.166 232.714,228.379 232.058,230.096 230.987 L 231.288 230.243 230.482 229.402 C 229.055 227.912,228.992 227.954,234.707 226.580 C 240.019 225.303,242.412 223.818,240.666 222.884 C 238.834 221.903,239.769 221.076,243.431 220.437 C 245.732 220.035,249.960 218.175,251.408 216.927 L 252.276 216.179 250.985 215.325 C 249.368 214.255,249.572 214.025,253.168 212.851 C 255.939 211.946,258.441 210.666,259.995 209.359 L 260.927 208.575 259.984 208.001 C 258.677 207.206,258.784 206.994,260.819 206.357 C 265.697 204.828,269.162 201.824,267.156 200.863 C 265.986 200.302,266.087 199.628,267.388 199.315 C 269.391 198.832,272.478 197.096,273.957 195.621 C 275.723 193.859,275.741 193.716,274.283 192.993 C 272.680 192.198,272.723 191.907,274.574 191.039 C 277.294 189.763,279.444 188.452,279.444 188.070 C 279.444 187.871,280.348 187.119,281.453 186.399 C 284.964 184.111,285.994 182.571,284.207 182.281 C 281.673 181.870,281.660 181.007,284.167 179.604 C 285.388 178.921,287.323 177.290,289.470 175.136 L 292.850 171.745 291.881 171.493 C 290.297 171.083,290.348 170.645,292.175 168.959 C 293.112 168.095,295.134 165.927,296.668 164.142 C 300.953 159.157,305.760 154.811,313.396 149.017 C 319.655 144.269,325.140 138.947,324.467 138.274 C 324.048 137.856,316.149 141.602,310.868 144.724 C 309.194 145.713,307.783 146.522,307.731 146.522 C 307.635 146.522,302.740 149.549,300.000 151.303 C 299.150 151.847,297.202 152.962,295.672 153.781 C 292.787 155.325,290.904 156.350,289.621 157.074 C 289.211 157.306,287.756 158.341,286.389 159.373 C 283.798 161.330,283.153 161.505,283.153 160.252 C 283.153 159.340,283.234 159.340,281.176 160.251 C 279.140 161.151,276.811 162.714,273.127 165.650 C 270.425 167.804,269.559 168.243,269.545 167.465 C 269.541 167.253,269.284 166.748,268.973 166.343 L 268.407 165.608 267.047 166.408 C 264.685 167.797,260.783 171.151,259.660 172.758 C 258.125 174.955,257.205 175.113,257.192 173.184 C 257.181 171.623,254.198 173.561,251.835 176.663 C 249.717 179.445,249.262 179.820,249.003 179.002 C 248.566 177.629,245.112 179.763,242.252 183.173 C 240.341 185.452,239.567 185.942,239.567 184.876 C 239.567 183.116,236.497 185.174,233.722 188.794 C 232.612 190.242,232.000 190.448,231.742 189.460 C 231.437 188.295,227.612 191.251,225.203 194.513 C 224.301 195.735,223.676 195.976,223.383 195.214 C 222.992 194.194,220.034 196.325,218.042 199.062 C 216.696 200.912,216.189 201.228,215.565 200.603 C 215.090 200.129,212.433 202.334,210.634 204.696 C 208.885 206.991,208.773 207.083,207.978 206.875 C 207.168 206.663,204.055 209.726,203.077 211.696 C 202.230 213.400,201.562 214.000,201.015 213.546 C 200.309 212.960,198.126 215.243,196.159 218.624 C 195.550 219.671,195.110 220.093,194.625 220.093 C 193.837 220.093,191.783 222.127,190.724 223.957 C 189.741 225.654,188.863 226.584,188.242 226.584 C 187.622 226.584,185.541 228.768,183.612 231.444 C 182.690 232.723,182.011 233.370,181.584 233.376 C 180.839 233.386,180.200 234.064,178.513 236.631 C 176.314 239.976,174.853 241.788,174.132 242.062 C 173.742 242.210,173.039 242.900,172.569 243.595 C 166.508 252.564,163.130 255.953,162.434 253.760 C 161.915 252.127,165.756 243.602,168.210 240.941 C 169.093 239.983,169.422 239.387,169.308 238.952 C 169.079 238.074,170.797 236.098,174.400 233.100 C 177.904 230.184,177.958 230.116,177.302 229.391 C 176.829 228.869,176.995 228.666,180.124 225.933 C 181.953 224.336,183.666 222.821,183.931 222.566 C 184.196 222.311,184.956 221.631,185.619 221.056 C 186.670 220.143,186.815 219.858,186.754 218.820 C 186.678 217.535,186.556 217.684,191.631 212.830 C 193.867 210.690,194.338 209.980,193.846 209.488 C 193.142 208.783,193.610 208.081,197.085 204.632 C 199.052 202.679,200.955 200.678,201.313 200.185 L 201.964 199.287 201.131 198.623 L 200.298 197.959 203.008 195.468 C 204.499 194.098,206.166 192.351,206.712 191.585 L 207.705 190.194 206.950 189.485 L 206.195 188.775 208.797 186.340 C 212.466 182.907,213.356 181.382,211.901 181.017 C 210.666 180.707,210.972 180.059,213.557 177.510 C 216.029 175.073,217.391 173.082,216.737 172.864 C 214.943 172.266,214.901 171.368,216.583 169.550 C 219.590 166.299,222.171 162.614,221.741 162.184 C 221.628 162.071,221.010 161.978,220.369 161.978 C 218.497 161.978,218.646 161.487,221.381 158.639 C 224.563 155.324,225.930 153.645,227.170 151.532 C 228.398 149.437,228.381 149.304,226.884 149.304 C 224.992 149.304,225.009 148.654,226.950 146.758 C 229.475 144.292,231.826 140.880,232.261 139.050 C 232.453 138.243,232.425 138.225,231.081 138.277 C 228.815 138.364,228.676 137.816,230.486 135.933 C 233.379 132.924,235.330 129.851,235.871 127.453 L 236.102 126.430 234.589 126.430 C 232.725 126.430,232.718 126.287,234.496 124.562 C 239.262 119.936,241.335 114.943,238.371 115.228 C 236.284 115.428,236.143 114.956,237.762 113.184 C 240.946 109.699,242.486 107.070,242.814 104.560 L 243.026 102.937 241.760 102.937 C 240.200 102.937,240.193 102.755,241.683 100.870 C 245.440 96.117,246.561 92.220,244.090 92.498 C 241.778 92.759,241.503 92.316,242.954 90.668 C 246.555 86.577,248.317 81.884,246.066 82.379 C 243.614 82.917,243.427 82.144,245.323 79.317 C 247.729 75.731,249.478 70.668,248.132 71.184 C 245.132 72.336,244.863 71.809,246.641 68.263 C 247.454 66.643,248.356 64.635,248.647 63.802 C 250.066 59.729,251.098 56.578,251.471 55.178 C 251.949 53.386,252.642 50.826,253.333 48.298 C 253.912 46.183,254.559 43.626,255.133 41.190 C 255.363 40.213,255.699 38.856,255.880 38.176 C 256.061 37.496,256.436 35.827,256.714 34.467 C 257.199 32.090,257.584 30.376,258.571 26.198 C 259.957 20.327,259.771 17.593,258.127 19.683 " stroke="none" fill="#aed581" fill-rule="evenodd"></path><path id="path1" d="M0.000 154.560 L 0.000 309.119 200.000 309.119 L 400.000 309.119 400.000 154.560 L 400.000 0.000 200.000 0.000 L 0.000 0.000 0.000 154.560 M259.816 21.005 C 259.627 22.804,259.171 25.113,257.614 32.148 C 257.370 33.253,256.976 35.062,256.739 36.167 C 256.503 37.272,256.082 39.080,255.805 40.185 C 254.390 45.818,253.787 48.123,253.014 50.850 C 252.725 51.870,252.242 53.679,251.940 54.869 C 251.204 57.769,249.749 62.217,249.418 62.581 C 249.270 62.743,249.150 63.063,249.150 63.294 C 249.150 63.811,248.245 65.910,246.756 68.845 C 245.490 71.339,245.536 71.627,247.114 71.106 C 249.986 70.158,249.196 74.331,245.487 79.702 C 243.938 81.946,244.047 82.630,245.849 81.979 C 247.301 81.454,247.295 81.449,247.295 83.104 C 247.295 84.881,246.031 87.632,244.271 89.685 C 241.951 92.390,241.983 92.231,243.803 92.056 C 245.563 91.887,245.750 92.045,245.750 93.707 C 245.750 95.162,242.575 101.142,241.426 101.852 C 240.695 102.304,241.156 102.688,242.195 102.493 L 243.277 102.290 243.277 103.684 C 243.277 106.144,241.448 109.763,238.724 112.692 C 236.404 115.186,236.416 115.072,238.498 114.948 L 240.340 114.838 240.241 115.920 C 240.050 118.008,238.127 121.281,235.603 123.813 L 233.235 126.189 234.772 126.077 C 236.020 125.987,236.329 126.064,236.411 126.484 C 236.522 127.048,234.774 131.474,234.201 132.083 C 234.007 132.289,233.438 133.061,232.937 133.799 C 232.436 134.536,231.428 135.667,230.696 136.311 C 229.090 137.725,229.405 138.381,231.519 138.023 C 233.930 137.616,232.162 141.743,228.076 146.060 C 225.509 148.771,225.442 148.995,227.202 148.995 C 228.730 148.995,228.827 149.175,228.085 150.630 C 226.906 152.941,225.081 155.315,222.160 158.340 C 218.985 161.628,218.970 161.669,220.917 161.669 C 222.496 161.669,222.622 162.075,221.579 163.797 C 220.852 164.996,217.768 168.917,216.272 170.543 L 215.360 171.535 216.333 172.089 C 217.977 173.024,217.661 173.723,213.828 177.634 C 211.438 180.073,211.094 180.835,212.383 180.835 C 214.321 180.835,211.698 184.705,207.621 187.863 L 206.741 188.544 207.381 189.357 C 208.320 190.551,206.271 193.407,201.900 196.999 L 200.863 197.851 201.668 198.484 C 202.803 199.377,202.914 199.201,198.146 204.076 C 195.209 207.080,193.880 208.650,194.008 208.964 C 194.602 210.423,194.533 210.534,190.748 214.211 C 187.103 217.752,186.985 217.907,187.175 218.918 C 187.361 219.913,187.263 220.057,185.107 221.940 C 183.862 223.028,182.493 224.274,182.064 224.710 C 181.461 225.322,178.212 228.105,177.462 228.652 C 177.392 228.703,177.572 229.007,177.863 229.327 C 178.369 229.886,178.286 230.004,175.839 232.188 C 170.404 237.042,169.706 237.821,169.706 239.039 C 169.706 239.653,169.525 240.266,169.304 240.402 C 167.111 241.749,162.019 252.393,162.900 253.787 C 163.592 254.881,165.564 252.809,170.514 245.784 C 171.998 243.678,173.484 241.884,173.817 241.796 C 174.338 241.660,176.603 238.784,179.666 234.369 C 180.209 233.587,180.826 233.093,181.405 232.977 C 182.039 232.850,182.537 232.406,183.098 231.468 C 184.243 229.551,187.283 226.275,187.915 226.275 C 188.563 226.275,189.426 225.371,190.570 223.493 C 191.737 221.576,193.450 219.848,194.408 219.622 C 194.943 219.495,195.568 218.860,196.291 217.707 C 198.227 214.621,199.963 212.926,200.961 213.145 C 201.755 213.319,201.889 213.205,202.655 211.690 C 203.862 209.308,206.863 206.372,207.892 206.569 C 208.553 206.695,208.836 206.495,209.634 205.335 C 211.838 202.131,215.017 199.560,215.884 200.280 C 216.321 200.642,217.053 199.995,218.120 198.305 C 219.722 195.764,223.082 193.757,223.747 194.944 C 223.982 195.364,224.317 195.088,225.685 193.348 C 228.192 190.157,231.508 187.871,231.951 189.026 C 232.255 189.818,232.641 189.559,234.401 187.381 C 236.625 184.628,239.876 182.863,239.876 184.408 C 239.876 185.224,240.385 184.870,241.868 183.021 C 244.373 179.897,248.723 177.071,249.057 178.350 C 249.300 179.278,249.428 179.182,251.633 176.423 C 254.923 172.305,257.024 171.242,257.583 173.412 L 257.861 174.489 258.508 173.566 C 260.407 170.856,266.997 165.379,268.359 165.379 C 268.642 165.379,269.161 165.867,269.513 166.464 L 270.153 167.548 272.805 165.459 C 279.787 159.958,283.462 158.056,283.462 159.945 C 283.462 161.028,283.741 160.959,285.668 159.400 C 287.255 158.115,291.196 155.669,293.818 154.342 C 296.471 152.998,298.848 151.652,300.773 150.403 C 303.657 148.531,307.905 145.904,308.048 145.904 C 308.115 145.904,309.422 145.145,310.951 144.218 C 313.446 142.705,317.325 140.733,321.601 138.805 C 323.176 138.094,325.193 137.638,325.193 137.992 C 325.193 139.349,319.013 145.395,313.720 149.215 C 311.210 151.027,305.783 155.450,303.586 157.475 C 300.346 160.461,299.522 161.316,296.503 164.816 C 294.938 166.632,293.003 168.677,292.205 169.359 L 290.753 170.600 291.610 170.926 C 292.081 171.105,292.597 171.252,292.756 171.252 C 294.646 171.252,286.066 179.525,283.021 180.639 C 282.210 180.936,282.894 181.612,284.389 181.991 C 286.382 182.496,285.444 184.350,282.140 186.438 C 281.252 186.999,280.034 187.950,279.432 188.551 C 278.831 189.152,277.176 190.213,275.754 190.909 L 273.169 192.173 274.605 192.763 C 276.301 193.461,276.284 193.393,275.154 194.952 C 273.804 196.816,271.326 198.338,267.241 199.814 C 266.684 200.015,266.718 200.090,267.627 200.666 C 268.811 201.416,268.841 201.598,267.929 202.545 C 266.023 204.525,263.036 206.236,260.729 206.669 C 259.721 206.858,259.173 207.728,260.062 207.728 C 263.495 207.728,257.982 212.040,252.779 213.425 C 250.225 214.104,250.109 214.260,251.471 215.187 C 252.062 215.590,252.547 216.019,252.548 216.139 C 252.558 217.139,247.685 219.830,244.589 220.535 C 243.272 220.834,241.788 221.173,241.292 221.286 C 240.046 221.571,239.977 222.099,241.099 222.761 C 243.123 223.957,240.151 225.749,233.694 227.229 C 230.168 228.037,229.551 228.450,230.722 229.217 C 231.166 229.508,231.530 229.889,231.530 230.063 C 231.530 231.079,226.782 233.140,223.493 233.552 C 221.398 233.815,220.504 234.228,220.987 234.712 C 222.346 236.071,218.841 237.618,212.927 238.270 C 211.198 238.461,210.974 238.562,210.974 239.153 C 210.974 240.241,210.489 240.440,205.873 241.253 C 202.499 241.847,200.927 242.322,200.927 242.749 C 200.927 243.611,196.904 244.495,192.926 244.507 C 191.248 244.512,190.850 244.624,190.269 245.249 C 189.560 246.015,189.468 246.030,182.572 246.540 C 180.747 246.674,180.331 246.820,179.635 247.565 C 179.189 248.042,178.268 248.614,177.588 248.836 C 176.908 249.057,176.078 249.427,175.743 249.658 C 175.407 249.888,174.901 250.077,174.617 250.077 C 174.334 250.077,173.287 250.671,172.291 251.397 C 171.294 252.123,169.900 252.973,169.192 253.287 C 168.484 253.600,167.441 254.337,166.874 254.924 L 165.842 255.991 166.693 255.669 C 167.162 255.492,168.162 255.065,168.918 254.721 C 169.673 254.377,170.618 254.096,171.019 254.096 C 171.419 254.096,171.879 253.974,172.040 253.824 C 172.412 253.480,175.920 252.474,179.134 251.788 C 180.495 251.498,182.372 250.979,183.308 250.634 C 184.243 250.289,185.773 249.823,186.708 249.599 C 187.643 249.375,189.435 248.835,190.690 248.398 C 191.944 247.962,193.516 247.604,194.183 247.604 C 194.849 247.604,195.816 247.386,196.332 247.119 C 196.848 246.852,198.476 246.509,199.949 246.357 C 201.422 246.204,203.671 245.912,204.946 245.707 C 206.221 245.502,208.238 245.366,209.428 245.405 C 210.764 245.448,212.006 245.304,212.674 245.028 C 214.492 244.278,216.913 244.075,217.721 244.605 C 218.362 245.025,218.657 244.987,221.036 244.184 C 224.112 243.146,225.037 243.081,225.969 243.835 C 226.696 244.424,227.177 244.335,230.391 243.016 C 231.972 242.367,234.621 242.546,234.621 243.301 C 234.621 243.946,236.034 243.941,236.940 243.293 C 238.971 241.840,244.293 241.117,244.457 242.272 C 244.575 243.098,244.758 243.113,247.153 242.483 C 255.159 240.379,286.877 238.445,287.373 240.031 C 287.575 240.677,283.028 242.498,279.236 243.288 C 274.557 244.264,272.879 244.605,270.810 245.001 C 269.547 245.243,268.017 245.602,267.410 245.799 C 264.811 246.644,260.051 248.320,259.196 248.692 C 258.686 248.914,257.504 249.331,256.569 249.619 C 252.855 250.763,252.350 251.014,252.373 251.705 C 252.395 252.353,247.152 254.483,244.822 254.773 C 244.397 254.825,244.031 255.077,244.008 255.332 C 243.985 255.587,243.950 255.951,243.931 256.140 C 243.880 256.626,241.580 257.416,239.567 257.639 C 237.733 257.842,233.921 258.483,233.734 258.620 C 233.672 258.666,233.847 258.930,234.124 259.206 C 235.316 260.399,232.724 261.572,228.866 261.585 C 226.170 261.594,226.006 261.631,226.291 262.162 C 226.788 263.092,225.490 263.677,222.452 263.891 C 219.919 264.070,219.803 264.110,219.963 264.750 C 220.301 266.097,217.769 266.411,212.596 265.665 L 211.128 265.453 211.315 266.388 C 211.493 267.281,211.446 267.332,210.268 267.531 C 208.946 267.755,204.447 267.244,203.891 266.807 C 203.188 266.256,201.733 266.200,201.361 266.709 C 200.883 267.362,197.745 266.799,194.590 265.494 C 192.640 264.687,192.391 264.648,192.063 265.094 C 191.605 265.718,191.220 265.599,186.842 263.480 C 183.370 261.799,182.689 261.579,182.689 262.133 C 182.689 262.913,178.345 261.050,175.915 259.228 C 175.193 258.687,174.634 258.494,174.143 258.617 C 173.749 258.716,172.763 258.652,171.953 258.474 C 167.980 257.605,166.307 257.783,169.861 258.696 C 173.621 259.663,178.046 261.124,178.501 261.549 C 178.662 261.700,179.010 261.825,179.274 261.826 C 179.537 261.827,180.170 262.046,180.680 262.312 C 181.190 262.578,182.640 263.226,183.902 263.752 C 185.164 264.278,186.655 265.137,187.215 265.662 C 187.775 266.186,189.177 267.090,190.330 267.670 C 194.434 269.734,196.018 270.805,195.832 271.389 C 195.705 271.791,196.202 272.338,197.753 273.504 C 198.904 274.369,202.280 277.254,205.255 279.915 C 211.505 285.505,213.980 287.552,216.461 289.182 C 218.733 290.675,218.722 290.693,215.688 290.482 C 212.013 290.226,209.037 288.981,201.897 284.714 C 198.699 282.803,197.000 281.964,196.362 281.982 C 195.579 282.004,192.389 280.385,191.190 279.357 C 189.987 278.325,185.629 275.425,185.283 275.425 C 185.048 275.425,183.349 274.249,181.507 272.812 C 179.224 271.030,177.970 270.245,177.565 270.342 C 177.136 270.445,176.166 269.713,174.085 267.720 C 172.301 266.011,171.030 265.019,170.758 265.124 C 170.499 265.223,169.841 264.793,169.162 264.080 C 167.477 262.312,165.370 260.976,163.645 260.582 C 162.814 260.393,161.905 260.116,161.627 259.968 C 161.043 259.657,161.061 259.616,158.484 267.233 C 155.408 276.323,155.131 277.120,154.726 278.053 C 154.504 278.563,153.871 280.232,153.320 281.762 C 152.768 283.292,152.138 284.892,151.919 285.317 C 151.701 285.742,151.216 286.716,150.843 287.481 C 149.978 289.252,149.769 289.367,148.413 288.811 C 146.408 287.991,146.407 287.958,148.198 284.235 C 149.807 280.892,151.426 276.905,154.666 268.315 C 155.276 266.700,156.317 263.851,156.982 261.983 L 158.189 258.587 156.606 257.514 C 154.849 256.322,153.708 256.194,149.389 256.702 C 147.722 256.899,147.036 256.867,146.686 256.576 C 146.345 256.293,145.580 256.246,143.884 256.405 C 142.221 256.561,141.421 256.516,141.097 256.247 C 140.847 256.039,139.263 255.774,137.577 255.657 C 135.890 255.540,134.327 255.300,134.102 255.124 C 133.218 254.430,131.378 254.036,128.012 253.817 C 125.250 253.638,124.412 253.477,124.113 253.068 C 123.901 252.778,122.922 252.390,121.912 252.194 C 120.911 252.000,119.884 251.669,119.629 251.458 C 118.917 250.868,114.300 249.871,104.637 248.222 C 103.617 248.048,101.009 247.907,98.841 247.909 C 95.571 247.912,94.900 247.835,94.900 247.457 C 94.900 246.582,99.258 244.976,103.752 244.193 C 105.925 243.815,106.734 243.825,119.695 244.397 C 123.076 244.546,124.488 244.496,125.198 244.202 C 125.973 243.881,126.397 243.881,127.450 244.201 C 131.463 245.421,132.797 245.874,133.060 246.108 C 133.222 246.251,133.879 246.368,134.520 246.368 C 135.162 246.368,137.162 246.867,138.965 247.477 C 142.820 248.780,143.209 248.740,140.494 247.319 C 139.405 246.748,138.542 246.149,138.577 245.987 C 138.612 245.825,138.362 245.534,138.022 245.341 C 135.018 243.634,133.515 242.474,133.649 241.965 C 133.758 241.546,133.444 241.259,132.353 240.780 C 128.713 239.183,126.704 237.925,126.826 237.318 C 126.863 237.132,125.522 236.276,123.845 235.415 C 120.396 233.642,118.893 232.352,119.138 231.375 C 119.272 230.840,118.938 230.555,117.049 229.596 C 113.963 228.028,111.194 225.039,112.828 225.039 C 113.607 225.039,112.955 224.392,110.800 223.027 C 107.776 221.112,106.070 218.894,107.306 218.482 C 107.498 218.418,106.802 217.821,105.758 217.156 C 102.674 215.191,101.333 212.612,103.168 212.173 C 103.636 212.062,104.119 211.914,104.243 211.845 C 104.366 211.776,103.656 210.926,102.666 209.956 C 97.899 205.286,95.881 201.236,98.321 201.236 L 99.288 201.236 97.171 198.969 C 93.870 195.435,92.576 192.581,94.274 192.581 C 94.799 192.581,94.563 192.135,92.857 189.898 C 89.741 185.814,88.362 182.474,89.523 181.824 C 89.965 181.577,89.936 181.412,89.259 180.340 C 88.537 179.195,85.509 173.059,83.860 169.397 C 82.513 166.406,81.274 163.765,79.583 160.278 C 75.956 152.802,74.538 148.367,74.511 144.410 C 74.490 141.272,74.061 140.754,83.922 155.796 C 89.881 164.886,92.122 167.667,98.007 173.273 C 98.611 173.848,99.411 174.931,99.785 175.679 C 100.342 176.794,100.591 177.015,101.166 176.905 C 102.079 176.731,103.987 178.630,105.788 181.505 C 106.736 183.018,107.241 183.560,107.573 183.420 C 109.105 182.773,109.904 183.603,112.676 188.717 C 115.042 193.083,115.254 193.338,115.977 192.687 C 116.704 192.032,117.455 192.759,119.016 195.632 C 121.609 200.401,121.538 200.302,122.145 199.977 C 123.130 199.450,123.890 200.189,125.345 203.087 C 126.492 205.370,126.921 205.931,127.860 206.376 C 128.777 206.811,129.166 207.301,129.899 208.944 C 131.851 213.314,132.036 213.610,133.195 214.201 C 134.353 214.792,134.847 215.637,136.165 219.279 C 136.464 220.107,137.035 221.067,137.434 221.414 C 137.832 221.760,138.378 222.703,138.646 223.510 C 139.102 224.884,140.611 227.470,141.487 228.379 C 143.568 230.538,145.434 233.599,145.770 235.405 C 145.896 236.079,146.328 237.154,146.730 237.793 C 147.133 238.433,147.965 239.893,148.581 241.039 C 149.196 242.185,150.076 243.609,150.537 244.204 C 150.998 244.799,151.975 246.432,152.709 247.832 C 154.017 250.329,155.094 251.810,155.388 251.515 C 155.470 251.434,155.406 251.111,155.246 250.799 C 155.087 250.487,154.649 248.980,154.273 247.450 C 153.499 244.296,152.789 242.205,152.148 241.192 C 151.907 240.811,151.784 240.306,151.875 240.069 C 151.966 239.832,151.863 239.379,151.648 239.062 C 151.432 238.745,150.803 237.651,150.248 236.631 C 149.694 235.611,148.699 233.847,148.036 232.713 C 146.801 230.597,146.595 229.858,147.146 229.517 C 147.425 229.345,146.112 226.411,145.557 225.966 C 144.544 225.156,142.232 220.212,142.704 219.867 C 143.192 219.509,143.193 219.447,142.711 218.914 C 142.427 218.600,142.195 218.243,142.195 218.120 C 142.195 217.997,141.543 216.897,140.746 215.676 C 137.755 211.095,136.755 208.655,137.867 208.655 C 138.817 208.655,138.627 207.898,136.986 205.143 C 134.154 200.390,133.514 198.454,134.776 198.454 C 135.601 198.454,135.650 198.588,133.526 195.031 C 132.498 193.310,131.576 191.496,131.476 190.999 C 131.377 190.502,131.175 190.020,131.027 189.929 C 130.470 189.585,130.733 188.253,131.357 188.253 C 132.393 188.253,132.372 187.690,131.272 186.014 C 128.559 181.878,127.833 178.807,129.490 178.476 C 130.030 178.368,130.432 178.194,130.382 178.089 C 129.599 176.427,128.457 174.058,128.218 173.600 C 128.049 173.276,127.834 171.904,127.742 170.551 L 127.573 168.091 128.886 168.313 L 130.199 168.534 128.438 165.236 C 126.837 162.237,126.673 161.751,126.631 159.872 L 126.584 157.805 127.594 157.884 L 128.604 157.964 127.861 156.787 C 124.985 152.231,124.500 147.538,126.943 147.905 L 128.296 148.108 127.670 146.994 C 126.559 145.014,125.796 142.406,125.597 139.905 L 125.403 137.461 126.400 137.660 C 127.533 137.887,127.532 137.738,126.376 135.085 C 126.042 134.320,125.687 132.734,125.587 131.560 L 125.405 129.426 126.690 129.632 C 128.107 129.858,128.178 129.762,127.524 128.508 C 126.572 126.683,126.048 120.526,126.782 119.792 C 126.875 119.699,127.551 119.834,128.284 120.093 C 130.040 120.712,130.032 120.748,128.884 117.415 C 128.079 115.080,127.861 113.892,127.743 111.201 C 127.565 107.131,127.805 106.612,129.426 107.568 C 131.325 108.688,131.632 108.467,130.921 106.491 C 129.931 103.745,130.393 95.950,131.571 95.502 C 132.200 95.263,132.255 95.122,131.990 94.426 C 131.822 93.985,131.606 91.790,131.509 89.548 C 131.326 85.339,130.515 77.020,130.244 76.581 C 130.160 76.445,129.888 75.051,129.640 73.483 C 127.937 62.725,126.786 57.767,125.049 53.709 C 124.403 52.198,127.368 53.664,129.457 55.888 C 130.759 57.275,133.230 61.815,133.230 62.821 C 133.230 63.103,133.359 63.412,133.516 63.509 C 133.673 63.606,133.899 64.132,134.019 64.677 C 134.138 65.222,134.346 65.881,134.480 66.141 C 135.154 67.451,140.026 81.381,141.133 85.162 C 141.432 86.182,141.852 87.226,142.066 87.481 C 142.280 87.736,142.549 88.362,142.664 88.872 C 142.778 89.382,143.050 90.355,143.268 91.036 C 143.915 93.052,144.359 95.151,144.359 96.194 L 144.359 97.171 145.122 96.454 C 146.651 95.017,147.574 97.410,147.593 102.859 C 147.604 106.364,147.810 106.929,148.686 105.873 C 150.180 104.073,151.314 107.101,151.314 112.892 L 151.314 116.819 152.336 115.828 L 153.358 114.838 153.948 115.611 C 154.879 116.829,155.234 119.305,155.124 123.812 C 155.018 128.189,155.055 128.347,155.951 127.357 C 156.787 126.433,157.196 126.598,157.678 128.053 C 158.200 129.625,158.232 136.497,157.725 138.253 C 157.333 139.616,157.731 139.797,158.895 138.788 C 160.108 137.735,160.279 138.371,160.271 143.912 C 160.264 149.087,160.306 149.273,161.339 148.628 C 162.897 147.655,163.278 150.763,162.416 157.417 L 162.225 158.884 163.137 158.702 C 164.631 158.403,164.759 163.650,163.359 167.776 C 162.784 169.467,162.967 169.781,164.370 169.518 L 165.477 169.310 165.285 171.904 C 165.180 173.330,164.897 175.263,164.657 176.198 C 163.800 179.536,163.781 179.907,164.467 179.907 C 165.680 179.907,165.664 185.059,164.439 188.489 C 164.004 189.709,164.223 190.417,165.035 190.417 C 166.150 190.417,166.151 191.903,165.041 196.845 C 164.784 197.988,164.769 198.690,164.990 199.176 C 165.293 199.841,165.039 202.700,164.616 203.384 C 164.401 203.732,163.387 207.689,163.086 209.355 C 162.924 210.255,162.984 210.560,163.355 210.702 C 164.088 210.983,163.944 211.839,162.534 215.572 C 161.332 218.754,161.234 219.241,161.220 222.102 C 161.207 224.743,161.082 225.492,160.358 227.248 C 159.584 229.127,159.320 231.068,159.505 233.539 C 159.531 233.879,159.327 235.062,159.052 236.167 C 157.646 241.828,157.645 251.700,159.051 252.867 C 159.704 253.409,159.705 253.409,160.451 249.449 C 161.820 242.187,162.005 240.873,162.168 237.249 C 162.260 235.209,162.531 232.983,162.770 232.303 C 163.010 231.623,163.357 229.119,163.541 226.739 C 164.043 220.259,164.166 219.648,164.992 219.530 C 165.648 219.437,165.688 219.289,165.688 216.919 C 165.688 215.537,165.849 212.486,166.045 210.140 L 166.403 205.873 167.237 205.873 C 168.214 205.873,168.464 204.378,168.468 198.514 C 168.471 194.061,168.875 192.581,170.087 192.581 L 171.013 192.581 170.824 190.340 C 170.075 181.416,170.229 179.956,171.830 180.813 C 172.985 181.431,173.181 181.237,172.980 179.675 C 172.528 176.166,172.439 173.658,172.738 172.867 C 172.913 172.404,173.141 171.637,173.245 171.162 C 173.415 170.385,173.546 170.309,174.584 170.390 C 175.484 170.460,175.706 170.378,175.603 170.015 C 175.246 168.748,175.240 164.476,175.594 163.002 C 176.004 161.293,176.281 161.070,177.101 161.787 C 177.965 162.543,178.945 162.704,178.820 162.068 C 177.582 155.765,178.812 149.804,180.845 152.254 C 181.559 153.114,181.744 152.277,181.456 149.485 C 180.949 144.577,181.958 141.300,183.672 142.284 C 184.900 142.989,184.832 143.115,185.341 139.207 C 186.284 131.972,187.139 130.014,188.589 131.774 C 189.777 133.215,190.410 133.263,190.439 131.917 C 190.611 124.084,192.433 118.096,193.944 120.402 C 194.831 121.757,195.438 121.413,195.171 119.706 C 194.691 116.641,195.779 111.005,197.215 109.119 L 197.803 108.346 199.051 109.563 C 200.605 111.078,200.495 111.248,200.939 106.646 C 201.537 100.453,203.634 96.771,205.234 99.105 C 206.429 100.850,206.638 100.538,206.912 96.600 C 207.190 92.610,208.631 90.407,209.999 91.882 L 210.707 92.646 211.236 89.847 C 212.236 84.560,213.693 82.651,215.284 84.546 L 216.307 85.764 216.529 83.454 C 216.993 78.616,220.075 72.705,220.923 75.025 C 221.034 75.330,221.378 75.909,221.687 76.311 C 222.324 77.142,222.276 77.222,223.041 74.034 C 224.210 69.159,226.621 66.491,227.741 68.834 C 228.555 70.536,228.829 70.386,229.675 67.775 C 230.638 64.804,233.350 59.379,234.102 58.921 C 234.565 58.638,234.782 58.726,235.344 59.422 L 236.025 60.265 238.007 56.949 C 239.097 55.125,241.176 51.824,242.628 49.614 C 245.821 44.750,246.882 43.023,248.029 40.826 C 248.510 39.903,249.024 38.929,249.170 38.662 C 249.625 37.831,250.908 34.814,251.152 34.003 C 251.391 33.208,253.142 28.814,253.985 26.893 C 257.623 18.604,260.356 15.844,259.816 21.005 " stroke="none" fill="#00000000" fill-rule="evenodd"></path><path id="path2" d="M222.083 158.037 L 221.175 159.042 222.179 158.134 C 222.732 157.634,223.184 157.182,223.184 157.129 C 223.184 156.890,222.929 157.101,222.083 158.037 M170.396 183.926 C 170.396 184.521,170.460 184.764,170.538 184.467 C 170.615 184.169,170.615 183.682,170.538 183.385 C 170.460 183.087,170.396 183.331,170.396 183.926 M168.558 200.773 C 168.561 201.623,168.621 201.934,168.692 201.464 C 168.763 200.994,168.761 200.299,168.687 199.918 C 168.614 199.538,168.556 199.923,168.558 200.773 " stroke="none" fill="#747474" fill-rule="evenodd"></path><path id="path3" d="M259.738 19.938 C 259.741 20.618,259.805 20.860,259.879 20.476 C 259.953 20.091,259.950 19.535,259.872 19.239 C 259.795 18.944,259.734 19.258,259.738 19.938 M258.269 28.130 C 258.152 28.664,258.120 29.166,258.199 29.245 C 258.277 29.323,258.431 28.943,258.539 28.400 C 258.797 27.112,258.547 26.862,258.269 28.130 M257.223 32.819 C 257.203 33.102,257.107 33.589,257.009 33.901 C 256.840 34.437,256.850 34.438,257.184 33.916 C 257.379 33.613,257.475 33.126,257.398 32.834 C 257.273 32.356,257.255 32.354,257.223 32.819 M255.368 40.856 C 255.348 41.139,255.252 41.626,255.154 41.938 C 254.986 42.474,254.995 42.475,255.330 41.953 C 255.524 41.650,255.620 41.163,255.544 40.871 C 255.418 40.393,255.400 40.391,255.368 40.856 M253.345 48.708 C 253.231 49.161,253.198 49.592,253.271 49.664 C 253.344 49.737,253.496 49.426,253.610 48.973 C 253.724 48.520,253.757 48.090,253.684 48.017 C 253.611 47.944,253.459 48.255,253.345 48.708 M251.345 56.136 C 251.167 56.780,251.077 57.362,251.145 57.430 C 251.213 57.498,251.414 57.027,251.592 56.383 C 251.770 55.739,251.860 55.157,251.792 55.089 C 251.724 55.021,251.522 55.492,251.345 56.136 M126.927 59.505 C 127.182 60.642,127.359 60.889,127.352 60.098 C 127.350 59.772,127.206 59.297,127.034 59.042 C 126.805 58.703,126.776 58.828,126.927 59.505 M249.511 61.808 C 249.330 62.327,249.248 62.751,249.328 62.751 C 249.537 62.751,250.120 61.145,249.967 60.992 C 249.897 60.922,249.692 61.289,249.511 61.808 M133.591 64.313 C 133.772 64.831,133.977 65.198,134.047 65.128 C 134.201 64.975,133.617 63.369,133.409 63.369 C 133.328 63.369,133.410 63.794,133.591 64.313 M248.416 72.991 C 248.158 74.279,248.408 74.529,248.686 73.261 C 248.804 72.727,248.835 72.225,248.756 72.146 C 248.678 72.068,248.524 72.448,248.416 72.991 M137.117 73.879 C 137.231 74.304,137.453 74.861,137.610 75.116 C 137.809 75.438,137.834 75.344,137.690 74.807 C 137.576 74.382,137.354 73.825,137.197 73.570 C 136.998 73.248,136.973 73.342,137.117 73.879 M219.415 75.348 C 218.870 75.982,218.462 76.662,218.625 76.662 C 218.688 76.662,219.049 76.244,219.426 75.734 C 220.171 74.726,220.164 74.476,219.415 75.348 M245.824 78.850 C 245.270 79.687,244.881 80.371,244.960 80.371 C 245.170 80.371,247.064 77.563,246.938 77.438 C 246.878 77.378,246.377 78.014,245.824 78.850 M130.829 80.371 C 130.829 80.966,130.893 81.209,130.970 80.912 C 131.048 80.614,131.048 80.128,130.970 79.830 C 130.893 79.532,130.829 79.776,130.829 80.371 M216.885 80.537 C 216.779 80.814,216.707 81.341,216.724 81.710 C 216.744 82.134,216.849 81.983,217.010 81.300 C 217.280 80.152,217.206 79.701,216.885 80.537 M131.151 82.844 C 131.151 83.609,131.211 83.922,131.285 83.539 C 131.358 83.157,131.358 82.531,131.285 82.148 C 131.211 81.766,131.151 82.079,131.151 82.844 M213.417 84.158 L 212.828 84.853 213.518 84.270 C 214.116 83.763,214.280 83.743,214.755 84.115 C 215.251 84.505,215.263 84.495,214.877 84.003 C 214.325 83.299,214.126 83.320,213.417 84.158 M244.191 89.413 C 243.617 90.135,243.391 90.530,243.690 90.290 C 244.252 89.838,245.577 88.099,245.359 88.099 C 245.291 88.099,244.765 88.690,244.191 89.413 M131.447 89.954 C 131.447 90.549,131.511 90.792,131.589 90.495 C 131.666 90.197,131.666 89.710,131.589 89.413 C 131.511 89.115,131.447 89.359,131.447 89.954 M242.352 91.650 C 241.885 92.214,242.518 92.553,243.641 92.339 C 244.167 92.238,244.081 92.190,243.316 92.160 C 242.426 92.124,242.330 92.049,242.658 91.654 C 242.870 91.399,242.974 91.190,242.889 91.190 C 242.804 91.190,242.562 91.397,242.352 91.650 M245.492 93.406 C 245.464 94.030,245.360 94.795,245.263 95.106 C 245.095 95.639,245.105 95.640,245.435 95.126 C 245.628 94.826,245.732 94.061,245.665 93.426 L 245.544 92.272 245.492 93.406 M144.134 95.827 C 144.134 96.592,144.194 96.905,144.268 96.522 C 144.341 96.140,144.341 95.514,144.268 95.131 C 144.194 94.749,144.134 95.062,144.134 95.827 M131.453 95.527 C 131.070 95.681,130.768 95.985,130.782 96.203 C 130.801 96.514,130.840 96.516,130.962 96.213 C 131.048 96.001,131.307 95.827,131.538 95.827 C 131.768 95.827,132.043 95.688,132.148 95.518 C 132.370 95.159,132.368 95.159,131.453 95.527 M145.102 96.522 L 144.513 97.218 145.237 96.604 C 145.950 95.998,145.966 95.998,146.396 96.586 C 146.635 96.913,146.832 97.044,146.832 96.875 C 146.832 96.532,146.198 95.827,145.890 95.827 C 145.781 95.827,145.426 96.140,145.102 96.522 M242.058 100.696 C 241.492 101.503,241.291 101.930,241.612 101.644 C 242.172 101.144,243.431 99.227,243.199 99.227 C 243.137 99.227,242.624 99.888,242.058 100.696 M147.549 102.937 C 147.549 104.042,147.605 104.494,147.673 103.941 C 147.742 103.389,147.742 102.485,147.673 101.932 C 147.605 101.379,147.549 101.832,147.549 102.937 M201.429 102.485 C 201.323 102.761,201.248 103.219,201.263 103.503 C 201.278 103.786,201.412 103.608,201.562 103.107 C 201.853 102.131,201.750 101.648,201.429 102.485 M200.690 109.428 C 200.690 110.023,200.754 110.267,200.831 109.969 C 200.909 109.672,200.909 109.185,200.831 108.887 C 200.754 108.590,200.690 108.833,200.690 109.428 M151.271 112.519 C 151.271 114.134,151.323 114.795,151.386 113.988 C 151.450 113.180,151.450 111.859,151.386 111.051 C 151.323 110.243,151.271 110.904,151.271 112.519 M195.872 112.110 C 195.780 112.420,195.633 113.230,195.544 113.910 C 195.421 114.860,195.484 114.755,195.819 113.455 C 196.217 111.909,196.261 110.789,195.872 112.110 M152.222 115.997 L 151.314 117.002 152.293 116.118 C 152.886 115.583,153.424 115.327,153.655 115.470 C 153.900 115.622,153.958 115.579,153.816 115.349 C 153.476 114.799,153.204 114.910,152.222 115.997 M154.947 119.784 C 154.950 120.464,155.013 120.705,155.087 120.321 C 155.161 119.936,155.158 119.380,155.081 119.084 C 155.004 118.789,154.943 119.104,154.947 119.784 M128.130 120.206 C 128.799 120.870,130.139 120.972,130.134 120.358 C 130.131 119.941,130.060 119.893,129.877 120.182 C 129.682 120.490,129.419 120.503,128.722 120.240 C 128.200 120.042,127.951 120.028,128.130 120.206 M237.402 121.561 C 236.947 122.183,236.873 122.399,237.207 122.127 C 237.714 121.716,238.480 120.556,238.245 120.556 C 238.186 120.556,237.807 121.009,237.402 121.561 M190.924 125.876 C 190.820 126.266,190.751 127.141,190.771 127.821 C 190.801 128.841,190.849 128.733,191.046 127.202 C 191.296 125.253,191.244 124.684,190.924 125.876 M233.771 126.334 C 234.069 126.411,234.556 126.411,234.853 126.334 C 235.151 126.256,234.907 126.192,234.312 126.192 C 233.717 126.192,233.474 126.256,233.771 126.334 M155.921 127.434 C 155.337 128.124,155.338 128.126,155.951 127.629 C 156.291 127.354,156.777 127.052,157.032 126.958 C 157.426 126.813,157.422 126.784,157.003 126.763 C 156.732 126.750,156.245 127.052,155.921 127.434 M158.071 132.612 C 158.071 134.227,158.123 134.888,158.187 134.080 C 158.251 133.273,158.251 131.951,158.187 131.144 C 158.123 130.336,158.071 130.997,158.071 132.612 M188.997 132.535 C 189.321 132.917,189.808 133.219,190.079 133.206 C 190.497 133.185,190.502 133.156,190.108 133.011 C 189.853 132.917,189.366 132.615,189.026 132.340 C 188.413 131.844,188.413 131.845,188.997 132.535 M231.084 135.684 L 229.864 137.094 231.223 135.791 C 231.970 135.074,232.519 134.440,232.442 134.381 C 232.366 134.321,231.754 134.908,231.084 135.684 M157.722 136.940 C 157.722 137.535,157.786 137.778,157.864 137.481 C 157.942 137.183,157.942 136.696,157.864 136.399 C 157.786 136.101,157.722 136.345,157.722 136.940 M185.240 140.495 C 185.244 141.175,185.307 141.416,185.381 141.032 C 185.455 140.647,185.452 140.091,185.375 139.795 C 185.297 139.500,185.237 139.815,185.240 140.495 M322.394 141.499 L 321.329 142.658 322.488 141.593 C 323.126 141.007,323.648 140.486,323.648 140.434 C 323.648 140.198,323.386 140.420,322.394 141.499 M74.498 142.805 C 74.498 143.000,74.628 143.078,74.788 142.979 C 74.947 142.881,75.510 143.429,76.039 144.198 C 76.568 144.966,77.076 145.595,77.169 145.595 C 77.262 145.595,76.871 144.945,76.301 144.151 C 75.266 142.711,74.498 142.137,74.498 142.805 M318.994 144.900 L 317.929 146.059 319.088 144.993 C 319.726 144.408,320.247 143.886,320.247 143.834 C 320.247 143.598,319.986 143.821,318.994 144.900 M228.574 145.363 L 227.666 146.368 228.671 145.460 C 229.223 144.961,229.675 144.509,229.675 144.455 C 229.675 144.216,229.420 144.427,228.574 145.363 M314.065 148.733 C 313.470 149.255,313.263 149.540,313.605 149.367 C 314.169 149.081,315.569 147.742,315.272 147.771 C 315.203 147.778,314.660 148.211,314.065 148.733 M161.223 148.657 C 161.128 148.812,161.327 148.865,161.666 148.777 C 162.109 148.661,162.363 148.820,162.574 149.347 C 162.744 149.771,162.875 149.877,162.886 149.598 C 162.923 148.688,161.650 147.968,161.223 148.657 M181.537 149.923 C 181.537 150.688,181.597 151.001,181.671 150.618 C 181.745 150.236,181.745 149.610,181.671 149.227 C 181.597 148.845,181.537 149.158,181.537 149.923 M224.439 155.578 C 223.140 157.101,223.129 157.129,224.233 156.105 C 225.211 155.197,226.212 153.906,225.900 153.955 C 225.851 153.963,225.194 154.693,224.439 155.578 M178.131 156.878 C 178.134 157.558,178.197 157.800,178.271 157.415 C 178.345 157.031,178.342 156.474,178.265 156.179 C 178.188 155.883,178.127 156.198,178.131 156.878 M302.937 157.805 C 302.186 158.570,301.641 159.196,301.726 159.196 C 301.811 159.196,302.495 158.570,303.246 157.805 C 303.997 157.040,304.541 156.414,304.456 156.414 C 304.371 156.414,303.687 157.040,302.937 157.805 M162.185 158.887 C 162.430 159.133,164.142 159.066,164.142 158.810 C 164.142 158.683,163.667 158.613,163.087 158.656 C 162.507 158.698,162.101 158.802,162.185 158.887 M164.214 161.978 C 164.214 162.573,164.278 162.817,164.355 162.519 C 164.433 162.222,164.433 161.735,164.355 161.437 C 164.278 161.140,164.214 161.383,164.214 161.978 M220.325 161.887 C 220.707 161.961,221.333 161.961,221.716 161.887 C 222.098 161.814,221.785 161.753,221.020 161.753 C 220.255 161.753,219.942 161.814,220.325 161.887 M298.126 162.674 L 297.218 163.679 298.223 162.771 C 298.775 162.271,299.227 161.819,299.227 161.766 C 299.227 161.527,298.972 161.737,298.126 162.674 M175.328 166.151 C 175.320 167.682,175.418 169.198,175.544 169.520 C 175.671 169.843,175.723 168.800,175.660 167.202 C 175.504 163.267,175.345 162.763,175.328 166.151 M294.416 167.002 L 293.509 168.006 294.513 167.098 C 295.066 166.599,295.518 166.147,295.518 166.094 C 295.518 165.855,295.263 166.065,294.416 167.002 M129.812 167.752 C 130.077 168.301,130.037 168.451,129.597 168.566 C 129.192 168.672,129.231 168.716,129.753 168.743 C 130.571 168.785,130.628 168.503,129.967 167.679 C 129.503 167.099,129.498 167.101,129.812 167.752 M216.209 170.402 L 215.301 171.406 216.306 170.499 C 216.859 169.999,217.311 169.547,217.311 169.494 C 217.311 169.255,217.056 169.465,216.209 170.402 M174.395 170.672 C 174.908 170.997,175.889 171.023,175.888 170.711 C 175.888 170.583,175.459 170.464,174.935 170.445 C 174.306 170.422,174.123 170.500,174.395 170.672 M172.681 172.964 C 172.575 173.240,172.512 174.463,172.541 175.682 L 172.593 177.898 172.783 175.270 C 172.987 172.438,172.977 172.194,172.681 172.964 M289.975 175.039 C 288.711 176.441,288.202 177.102,288.843 176.507 C 289.984 175.448,292.588 172.488,292.378 172.489 C 292.320 172.489,291.238 173.636,289.975 175.039 M253.308 174.420 L 252.087 175.734 253.400 174.512 C 254.622 173.376,254.856 173.107,254.622 173.107 C 254.572 173.107,253.981 173.698,253.308 174.420 M212.505 178.748 L 211.283 180.062 212.597 178.840 C 213.818 177.704,214.052 177.434,213.819 177.434 C 213.768 177.434,213.177 178.026,212.505 178.748 M129.830 178.362 L 129.057 178.609 129.907 178.640 C 130.375 178.657,130.757 178.532,130.757 178.362 C 130.757 178.192,130.723 178.066,130.680 178.083 C 130.638 178.100,130.255 178.226,129.830 178.362 M128.671 179.753 C 128.675 180.433,128.738 180.675,128.812 180.290 C 128.886 179.906,128.883 179.349,128.806 179.054 C 128.729 178.758,128.668 179.073,128.671 179.753 M170.649 180.970 C 170.446 181.215,170.339 181.806,170.410 182.284 C 170.537 183.128,170.542 183.125,170.587 182.164 C 170.614 181.586,170.858 181.044,171.175 180.859 C 171.472 180.686,171.559 180.540,171.367 180.535 C 171.175 180.530,170.852 180.726,170.649 180.970 M106.640 183.230 C 107.011 183.995,107.418 184.119,107.757 183.569 C 107.898 183.341,107.842 183.296,107.601 183.445 C 107.380 183.581,107.031 183.440,106.763 183.107 C 106.333 182.573,106.325 182.581,106.640 183.230 M211.303 184.158 C 210.635 185.012,210.582 185.155,211.100 184.702 C 211.720 184.161,212.537 182.998,212.298 182.998 C 212.250 182.998,211.802 183.520,211.303 184.158 M283.617 185.066 C 282.767 185.848,282.488 186.203,282.998 185.855 C 283.867 185.263,285.582 183.600,285.293 183.631 C 285.221 183.638,284.467 184.284,283.617 185.066 M235.987 185.648 L 234.776 186.753 236.090 185.751 C 237.290 184.836,237.583 184.544,237.300 184.544 C 237.244 184.544,236.652 185.041,235.987 185.648 M170.403 185.935 C 170.406 186.615,170.469 186.857,170.543 186.472 C 170.617 186.088,170.614 185.532,170.537 185.236 C 170.460 184.940,170.399 185.255,170.403 185.935 M130.757 189.008 C 130.757 189.423,130.883 189.841,131.038 189.936 C 131.192 190.031,131.241 189.816,131.148 189.459 C 131.048 189.078,131.156 188.696,131.409 188.536 C 131.753 188.318,131.731 188.262,131.298 188.258 C 130.930 188.255,130.757 188.494,130.757 189.008 M227.186 191.577 L 226.121 192.736 227.280 191.670 C 228.359 190.679,228.581 190.417,228.345 190.417 C 228.293 190.417,227.772 190.939,227.186 191.577 M115.880 192.813 C 115.496 193.303,115.507 193.314,115.997 192.930 C 116.455 192.570,116.620 192.570,117.079 192.930 C 117.569 193.314,117.580 193.303,117.196 192.813 C 116.962 192.515,116.666 192.272,116.538 192.272 C 116.409 192.272,116.114 192.515,115.880 192.813 M93.461 193.058 C 93.360 193.321,93.364 193.622,93.470 193.728 C 93.576 193.834,93.663 193.699,93.663 193.428 C 93.663 193.157,93.906 192.872,94.204 192.794 C 94.711 192.662,94.710 192.651,94.194 192.617 C 93.891 192.597,93.561 192.796,93.461 193.058 M169.474 192.794 C 169.772 192.872,170.259 192.872,170.556 192.794 C 170.854 192.716,170.611 192.653,170.015 192.653 C 169.420 192.653,169.177 192.716,169.474 192.794 M165.421 194.024 C 165.398 194.393,165.299 194.949,165.201 195.261 C 165.032 195.797,165.042 195.798,165.376 195.277 C 165.570 194.975,165.669 194.418,165.596 194.041 C 165.463 193.355,165.463 193.355,165.421 194.024 M222.131 194.698 C 222.024 194.871,222.220 194.925,222.597 194.826 C 222.974 194.728,223.374 194.837,223.548 195.087 C 223.798 195.445,223.828 195.439,223.724 195.054 C 223.580 194.519,222.404 194.256,222.131 194.698 M94.496 195.696 C 94.803 196.219,95.252 196.810,95.493 197.010 C 95.734 197.209,95.542 196.781,95.066 196.059 C 94.065 194.542,93.670 194.290,94.496 195.696 M168.576 197.063 C 168.577 198.423,168.631 198.941,168.697 198.214 C 168.762 197.487,168.761 196.375,168.695 195.741 C 168.628 195.108,168.575 195.703,168.576 197.063 M97.495 199.282 L 99.317 201.191 98.270 201.291 C 97.192 201.394,96.681 202.214,97.305 202.838 C 97.499 203.032,97.551 202.856,97.453 202.342 C 97.316 201.627,97.397 201.546,98.246 201.546 C 99.744 201.546,99.635 201.156,97.590 199.203 L 95.672 197.372 97.495 199.282 M201.685 198.689 C 202.257 199.378,202.254 199.401,201.528 200.235 L 200.790 201.082 201.701 200.233 L 202.612 199.383 201.858 198.687 L 201.105 197.991 201.685 198.689 M216.848 199.999 C 216.433 200.458,216.186 200.530,215.888 200.282 C 215.402 199.880,214.428 200.147,213.861 200.839 C 213.528 201.245,213.619 201.232,214.327 200.771 C 215.015 200.323,215.328 200.274,215.760 200.543 C 216.209 200.824,216.445 200.747,217.020 200.135 C 217.409 199.721,217.655 199.382,217.567 199.382 C 217.479 199.382,217.155 199.659,216.848 199.999 M266.461 199.989 C 266.461 200.153,266.774 200.439,267.156 200.624 C 267.780 200.927,267.797 200.917,267.315 200.527 C 267.021 200.289,266.870 200.003,266.981 199.892 C 267.091 199.781,267.020 199.691,266.821 199.691 C 266.623 199.691,266.461 199.825,266.461 199.989 M197.673 204.405 L 195.518 206.646 197.759 204.491 C 199.840 202.488,200.141 202.164,199.914 202.164 C 199.867 202.164,198.859 203.172,197.673 204.405 M168.232 204.019 C 168.232 204.614,168.296 204.857,168.374 204.560 C 168.452 204.262,168.452 203.775,168.374 203.478 C 168.296 203.180,168.232 203.423,168.232 204.019 M210.537 204.137 L 209.790 205.100 210.675 204.260 C 211.161 203.797,211.497 203.364,211.421 203.296 C 211.345 203.228,210.947 203.606,210.537 204.137 M126.718 206.003 C 127.033 206.383,128.284 206.892,128.284 206.640 C 128.284 206.583,127.853 206.322,127.326 206.059 C 126.602 205.697,126.453 205.684,126.718 206.003 M205.699 207.805 L 204.791 208.810 205.796 207.902 C 206.349 207.403,206.801 206.951,206.801 206.897 C 206.801 206.659,206.546 206.869,205.699 207.805 M138.485 208.192 C 138.485 208.449,138.211 208.655,137.867 208.655 C 137.483 208.655,137.251 208.860,137.254 209.196 C 137.256 209.522,137.349 209.605,137.485 209.406 C 137.610 209.223,137.956 208.984,138.253 208.874 C 138.726 208.700,139.054 207.728,138.640 207.728 C 138.555 207.728,138.485 207.937,138.485 208.192 M166.075 210.046 C 166.078 210.726,166.142 210.968,166.216 210.584 C 166.289 210.199,166.287 209.643,166.209 209.347 C 166.132 209.052,166.071 209.366,166.075 210.046 M163.570 211.489 C 163.545 211.943,163.444 212.569,163.346 212.880 C 163.178 213.416,163.187 213.417,163.520 212.898 C 163.714 212.596,163.815 211.970,163.745 211.507 L 163.617 210.665 163.570 211.489 M191.952 212.906 L 190.263 214.683 192.040 212.994 C 193.691 211.424,193.959 211.128,193.730 211.128 C 193.681 211.128,192.882 211.928,191.952 212.906 M165.753 215.997 C 165.693 219.211,165.642 219.474,165.088 219.474 C 164.758 219.474,164.414 219.594,164.324 219.739 C 164.234 219.884,164.516 219.936,164.950 219.853 C 165.998 219.652,166.036 219.490,165.919 215.744 L 165.818 212.519 165.753 215.997 M199.032 214.167 L 197.991 215.301 199.105 214.280 C 199.978 213.479,200.389 213.300,201.003 213.455 C 201.434 213.563,201.858 213.536,201.944 213.394 C 202.514 212.463,199.979 213.135,199.032 214.167 M188.237 216.306 L 187.172 217.465 188.331 216.400 C 189.410 215.408,189.632 215.147,189.396 215.147 C 189.344 215.147,188.823 215.668,188.237 216.306 M196.408 217.388 C 195.344 219.193,195.275 219.347,195.817 218.702 C 196.445 217.954,196.986 217.002,196.783 217.002 C 196.702 217.002,196.534 217.175,196.408 217.388 M107.311 218.512 C 107.082 218.657,106.943 219.001,107.002 219.276 C 107.083 219.653,107.197 219.587,107.467 219.007 C 107.664 218.584,107.803 218.240,107.776 218.243 C 107.750 218.245,107.540 218.366,107.311 218.512 M246.986 219.629 C 246.561 219.872,246.352 220.071,246.522 220.071 C 246.692 220.071,247.179 219.872,247.604 219.629 C 248.029 219.386,248.238 219.187,248.068 219.187 C 247.898 219.187,247.411 219.386,246.986 219.629 M192.412 221.097 L 191.190 222.411 192.576 221.175 C 193.339 220.495,194.023 219.903,194.096 219.861 C 194.170 219.818,194.096 219.784,193.932 219.784 C 193.768 219.784,193.084 220.375,192.412 221.097 M163.905 222.875 C 163.905 223.470,163.968 223.713,164.046 223.416 C 164.124 223.118,164.124 222.631,164.046 222.334 C 163.968 222.036,163.905 222.280,163.905 222.875 M183.752 222.952 L 182.844 223.957 183.849 223.049 C 184.785 222.203,184.995 221.947,184.756 221.947 C 184.703 221.947,184.251 222.400,183.752 222.952 M163.612 225.502 C 163.615 226.352,163.675 226.663,163.746 226.194 C 163.817 225.724,163.815 225.028,163.742 224.648 C 163.668 224.268,163.610 224.652,163.612 225.502 M189.356 225.270 C 188.688 226.124,188.634 226.268,189.153 225.815 C 189.772 225.273,190.590 224.111,190.351 224.111 C 190.302 224.111,189.855 224.633,189.356 225.270 M180.348 226.045 L 179.444 227.046 180.371 226.274 C 180.881 225.850,181.356 225.468,181.427 225.425 C 181.498 225.383,181.488 225.280,181.405 225.196 C 181.321 225.113,180.846 225.495,180.348 226.045 M186.230 227.589 L 185.008 228.903 186.394 227.666 C 187.156 226.986,187.840 226.395,187.914 226.352 C 187.987 226.310,187.913 226.275,187.749 226.275 C 187.586 226.275,186.902 226.866,186.230 227.589 M147.124 228.652 C 147.341 229.101,147.347 229.393,147.141 229.520 C 146.687 229.801,146.764 230.707,147.300 231.394 C 147.733 231.948,147.740 231.927,147.395 231.121 C 147.114 230.465,147.108 230.108,147.371 229.686 C 147.643 229.251,147.618 228.996,147.260 228.550 C 146.824 228.009,146.816 228.015,147.124 228.652 M183.833 230.371 C 182.994 231.505,182.428 232.482,182.893 231.994 C 183.466 231.391,184.882 229.366,184.730 229.366 C 184.645 229.366,184.241 229.818,183.833 230.371 M224.884 233.076 L 224.266 233.341 224.884 233.358 C 225.224 233.368,225.711 233.241,225.966 233.076 C 226.580 232.679,225.808 232.679,224.884 233.076 M162.391 236.167 C 162.391 237.442,162.446 237.964,162.513 237.326 C 162.579 236.689,162.579 235.645,162.513 235.008 C 162.446 234.370,162.391 234.892,162.391 236.167 M220.904 235.073 C 221.006 235.339,220.900 235.798,220.668 236.094 C 220.287 236.579,220.299 236.590,220.788 236.206 C 221.386 235.738,221.496 235.070,221.024 234.778 C 220.848 234.669,220.797 234.795,220.904 235.073 M276.121 239.480 C 276.588 239.550,277.353 239.550,277.821 239.480 C 278.288 239.409,277.906 239.351,276.971 239.351 C 276.036 239.351,275.653 239.409,276.121 239.480 M286.090 239.777 C 286.430 239.868,286.904 240.102,287.145 240.296 C 287.488 240.574,287.549 240.550,287.430 240.185 C 287.347 239.930,286.872 239.697,286.375 239.666 C 285.807 239.632,285.701 239.673,286.090 239.777 M161.838 241.281 C 161.720 242.070,161.686 242.778,161.763 242.856 C 161.841 242.933,162.001 242.351,162.119 241.562 C 162.237 240.774,162.271 240.066,162.193 239.988 C 162.116 239.911,161.956 240.493,161.838 241.281 M266.229 240.098 C 266.696 240.169,267.461 240.169,267.929 240.098 C 268.396 240.027,268.014 239.969,267.079 239.969 C 266.144 239.969,265.761 240.027,266.229 240.098 M158.032 241.113 C 158.032 241.708,158.095 241.951,158.173 241.654 C 158.251 241.356,158.251 240.869,158.173 240.572 C 158.095 240.274,158.032 240.518,158.032 241.113 M256.804 241.022 C 257.189 241.096,257.745 241.093,258.041 241.016 C 258.336 240.939,258.022 240.878,257.342 240.882 C 256.662 240.885,256.420 240.948,256.804 241.022 M242.040 241.544 C 242.040 241.611,242.585 241.718,243.251 241.782 C 243.916 241.845,244.395 241.790,244.314 241.659 C 244.167 241.422,242.040 241.314,242.040 241.544 M248.995 242.040 C 248.162 242.252,248.147 242.277,248.841 242.282 C 249.266 242.285,249.961 242.176,250.386 242.040 C 251.425 241.707,250.303 241.707,248.995 242.040 M230.371 242.977 C 229.336 243.393,229.529 243.605,230.603 243.230 C 231.113 243.053,231.530 242.851,231.530 242.783 C 231.530 242.599,231.154 242.662,230.371 242.977 M234.229 243.303 C 234.442 244.115,235.039 244.354,235.762 243.917 C 236.229 243.633,236.181 243.609,235.471 243.770 C 234.752 243.932,234.621 243.862,234.621 243.310 C 234.621 242.952,234.495 242.658,234.341 242.658 C 234.187 242.658,234.137 242.948,234.229 243.303 M223.879 243.490 C 224.177 243.567,224.664 243.567,224.961 243.490 C 225.259 243.412,225.015 243.348,224.420 243.348 C 223.825 243.348,223.582 243.412,223.879 243.490 M227.666 244.060 C 226.893 244.433,226.867 244.476,227.512 244.318 C 228.387 244.104,229.372 243.602,228.903 243.609 C 228.733 243.612,228.176 243.815,227.666 244.060 M106.737 244.125 C 108.063 244.183,110.149 244.183,111.374 244.124 C 112.599 244.066,111.515 244.018,108.964 244.019 C 106.414 244.019,105.412 244.067,106.737 244.125 M125.374 244.127 C 125.247 244.254,124.284 244.442,123.236 244.543 L 121.329 244.728 123.199 244.775 C 124.228 244.801,125.202 244.695,125.363 244.539 C 125.525 244.384,126.005 244.194,126.430 244.118 L 127.202 243.979 126.404 243.937 C 125.965 243.914,125.501 243.999,125.374 244.127 M190.417 244.436 C 190.416 244.563,191.286 244.629,192.349 244.581 C 195.634 244.434,195.950 244.299,193.122 244.250 C 191.634 244.225,190.417 244.308,190.417 244.436 M215.842 244.417 C 216.140 244.495,216.627 244.495,216.924 244.417 C 217.222 244.339,216.978 244.276,216.383 244.276 C 215.788 244.276,215.545 244.339,215.842 244.417 M212.828 244.966 C 211.635 245.512,212.190 245.520,213.601 244.977 C 214.196 244.748,214.474 244.556,214.219 244.551 C 213.964 244.545,213.338 244.732,212.828 244.966 M165.429 245.608 C 164.911 246.745,165.010 246.988,165.570 245.954 C 165.831 245.472,165.987 245.019,165.917 244.948 C 165.846 244.877,165.627 245.175,165.429 245.608 M170.015 246.522 C 169.489 247.287,169.128 247.913,169.213 247.913 C 169.298 247.913,169.798 247.287,170.325 246.522 C 170.851 245.757,171.212 245.131,171.127 245.131 C 171.042 245.131,170.542 245.757,170.015 246.522 M189.335 245.606 C 188.825 245.840,188.625 246.037,188.890 246.045 C 189.155 246.052,189.642 245.855,189.972 245.605 C 190.705 245.051,190.548 245.051,189.335 245.606 M202.628 246.059 C 201.587 246.245,201.538 246.283,202.318 246.301 C 202.828 246.313,203.872 246.211,204.637 246.075 C 205.885 245.852,205.917 245.828,204.946 245.832 C 204.351 245.835,203.308 245.937,202.628 246.059 M95.440 246.702 C 94.059 247.506,94.830 247.915,97.604 247.851 L 100.309 247.788 97.759 247.683 C 95.150 247.577,94.676 247.337,95.904 246.745 C 96.287 246.561,96.461 246.405,96.291 246.398 C 96.121 246.392,95.738 246.528,95.440 246.702 M157.750 248.223 C 157.750 249.328,157.806 249.780,157.874 249.227 C 157.943 248.675,157.943 247.770,157.874 247.218 C 157.806 246.665,157.750 247.117,157.750 248.223 M100.850 247.817 C 101.148 247.895,101.634 247.895,101.932 247.817 C 102.230 247.740,101.986 247.676,101.391 247.676 C 100.796 247.676,100.553 247.740,100.850 247.817 M193.281 247.826 C 193.751 247.897,194.446 247.895,194.827 247.822 C 195.207 247.749,194.822 247.690,193.972 247.693 C 193.122 247.695,192.811 247.755,193.281 247.826 M106.491 248.517 C 107.085 248.786,108.741 248.961,108.475 248.727 C 108.404 248.665,107.790 248.529,107.110 248.425 C 106.248 248.294,106.061 248.322,106.491 248.517 M142.218 248.517 C 141.922 248.700,141.935 248.793,142.274 248.924 C 142.516 249.017,142.887 248.986,143.099 248.855 C 143.395 248.672,143.382 248.579,143.043 248.449 C 142.801 248.356,142.429 248.387,142.218 248.517 M111.592 249.455 C 111.847 249.622,112.392 249.761,112.803 249.763 C 113.795 249.770,113.543 249.594,112.210 249.349 C 111.449 249.210,111.266 249.241,111.592 249.455 M144.531 249.430 C 144.358 249.710,146.199 250.504,146.447 250.256 C 146.520 250.183,146.158 249.904,145.641 249.638 C 145.125 249.371,144.626 249.277,144.531 249.430 M186.090 249.768 C 185.020 249.993,185.018 249.996,185.935 250.032 C 186.445 250.052,187.071 249.933,187.326 249.768 C 187.841 249.436,187.670 249.436,186.090 249.768 M116.229 250.372 C 116.484 250.545,116.959 250.688,117.285 250.691 C 118.076 250.697,117.829 250.520,116.692 250.266 C 116.015 250.114,115.890 250.143,116.229 250.372 M252.266 251.653 C 252.252 251.924,251.928 252.298,251.546 252.482 C 251.163 252.667,250.997 252.827,251.177 252.838 C 251.773 252.877,252.638 252.040,252.463 251.596 C 252.327 251.252,252.285 251.264,252.266 251.653 M159.850 252.473 C 159.812 253.226,159.533 253.345,158.948 252.860 C 158.743 252.691,158.784 252.789,159.038 253.079 C 159.601 253.719,160.262 253.236,160.034 252.351 C 159.912 251.879,159.880 251.900,159.850 252.473 M123.338 252.470 C 123.594 252.569,123.965 252.871,124.163 253.141 C 124.362 253.411,124.629 253.527,124.756 253.400 C 124.883 253.273,124.825 253.168,124.626 253.168 C 124.428 253.168,124.266 252.960,124.266 252.705 C 124.266 252.423,123.993 252.251,123.570 252.266 C 123.101 252.282,123.025 252.348,123.338 252.470 M164.760 253.215 C 164.165 253.737,163.958 254.022,164.300 253.849 C 164.865 253.564,166.265 252.224,165.968 252.254 C 165.899 252.261,165.355 252.693,164.760 253.215 M167.237 254.284 C 166.073 255.335,165.877 255.957,166.711 255.946 C 166.980 255.942,166.975 255.875,166.692 255.695 C 166.283 255.436,167.365 254.223,168.624 253.528 C 168.964 253.341,169.069 253.183,168.857 253.178 C 168.645 253.173,167.916 253.670,167.237 254.284 M125.580 253.691 C 125.877 253.768,126.364 253.768,126.662 253.691 C 126.959 253.613,126.716 253.549,126.121 253.549 C 125.526 253.549,125.282 253.613,125.580 253.691 M134.020 255.009 C 134.191 255.180,134.814 255.394,135.404 255.484 C 136.493 255.650,136.287 255.519,134.628 254.991 C 134.010 254.793,133.810 254.799,134.020 255.009 M140.185 255.865 C 140.526 255.949,140.972 256.154,141.178 256.320 C 141.404 256.504,142.474 256.537,143.884 256.405 C 145.655 256.239,146.346 256.289,146.756 256.610 C 147.251 256.998,147.258 256.985,146.845 256.460 C 146.446 255.953,146.109 255.912,143.865 256.099 C 142.169 256.240,141.267 256.199,141.128 255.975 C 141.015 255.792,140.617 255.658,140.245 255.677 C 139.617 255.711,139.613 255.724,140.185 255.865 M152.112 256.064 C 152.183 256.126,152.921 256.250,153.751 256.340 C 154.674 256.439,155.095 256.397,154.833 256.231 C 154.432 255.977,151.832 255.818,152.112 256.064 M167.697 258.092 C 167.159 258.304,167.213 258.366,168.106 258.564 C 168.670 258.689,169.215 258.709,169.316 258.607 C 169.417 258.506,169.164 258.402,168.753 258.375 C 168.342 258.348,168.702 258.231,169.552 258.114 L 171.097 257.902 169.706 257.876 C 168.941 257.861,168.037 257.958,167.697 258.092 M174.652 258.200 C 174.652 258.259,175.104 258.638,175.657 259.043 C 176.279 259.498,176.494 259.572,176.223 259.239 C 175.812 258.732,174.652 257.965,174.652 258.200 M233.385 258.361 C 233.385 258.497,233.872 258.552,234.467 258.482 C 235.062 258.413,235.549 258.302,235.549 258.235 C 235.549 258.169,235.062 258.114,234.467 258.114 C 233.872 258.114,233.385 258.226,233.385 258.361 M172.875 258.637 C 173.172 258.714,173.659 258.714,173.957 258.637 C 174.254 258.559,174.011 258.495,173.416 258.495 C 172.821 258.495,172.577 258.559,172.875 258.637 M174.652 260.226 C 174.907 260.384,175.464 260.606,175.889 260.719 C 176.426 260.863,176.520 260.839,176.198 260.639 C 175.943 260.482,175.386 260.260,174.961 260.146 C 174.424 260.003,174.330 260.027,174.652 260.226 M157.067 261.549 C 156.876 262.095,156.775 262.596,156.841 262.663 C 156.907 262.729,157.117 262.336,157.307 261.789 C 157.498 261.243,157.599 260.742,157.533 260.676 C 157.467 260.610,157.257 261.003,157.067 261.549 M179.289 261.982 C 179.289 262.032,179.711 262.220,180.227 262.399 C 180.765 262.587,181.088 262.602,180.984 262.434 C 180.876 262.260,181.213 262.220,181.824 262.337 C 182.385 262.443,182.760 262.438,182.656 262.325 C 182.475 262.125,179.289 261.801,179.289 261.982 M219.647 263.959 C 219.551 264.113,219.616 264.565,219.790 264.964 C 220.094 265.659,220.100 265.655,219.943 264.853 C 219.781 264.025,219.797 264.016,221.713 263.907 L 223.648 263.798 221.734 263.738 C 220.681 263.705,219.742 263.805,219.647 263.959 M170.479 264.932 L 169.861 265.214 170.479 265.149 C 170.819 265.114,171.306 265.213,171.561 265.368 C 171.961 265.613,171.967 265.580,171.600 265.129 C 171.367 264.841,171.158 264.616,171.137 264.628 C 171.115 264.640,170.819 264.776,170.479 264.932 M215.372 266.065 C 215.921 266.134,216.894 266.135,217.536 266.068 C 218.177 266.001,217.728 265.945,216.538 265.944 C 215.348 265.942,214.823 265.997,215.372 266.065 M201.236 266.409 C 201.236 266.607,200.784 266.791,200.232 266.816 C 199.244 266.862,199.242 266.865,200.115 266.995 C 201.001 267.127,201.848 266.660,201.448 266.260 C 201.332 266.143,201.236 266.211,201.236 266.409 M208.269 267.606 C 208.651 267.680,209.277 267.680,209.660 267.606 C 210.043 267.532,209.730 267.472,208.964 267.472 C 208.199 267.472,207.886 267.532,208.269 267.606 M176.323 269.784 C 176.947 270.521,177.584 270.679,177.896 270.174 C 178.005 269.997,177.878 269.947,177.593 270.056 C 177.322 270.161,176.796 269.986,176.418 269.667 L 175.734 269.088 176.323 269.784 M201.236 276.449 C 201.236 276.502,201.689 276.954,202.241 277.454 L 203.246 278.362 202.338 277.357 C 201.492 276.421,201.236 276.210,201.236 276.449 M204.946 279.907 C 205.523 280.502,206.064 280.989,206.149 280.989 C 206.234 280.989,205.832 280.502,205.255 279.907 C 204.678 279.312,204.137 278.825,204.052 278.825 C 203.967 278.825,204.369 279.312,204.946 279.907 M206.801 281.395 C 206.801 281.448,207.253 281.900,207.805 282.400 L 208.810 283.308 207.902 282.303 C 207.056 281.366,206.801 281.156,206.801 281.395 M146.646 287.222 C 146.411 287.602,147.574 288.726,148.180 288.705 C 148.373 288.698,148.138 288.479,147.657 288.218 C 147.118 287.926,146.848 287.575,146.952 287.303 C 147.156 286.773,146.956 286.720,146.646 287.222 " stroke="none" fill="#979797" fill-rule="evenodd"></path><path id="path4" d="M259.423 21.329 C 259.423 21.924,259.486 22.168,259.564 21.870 C 259.642 21.573,259.642 21.086,259.564 20.788 C 259.486 20.491,259.423 20.734,259.423 21.329 M257.364 31.089 C 257.250 31.542,257.217 31.972,257.289 32.045 C 257.362 32.118,257.515 31.807,257.629 31.353 C 257.742 30.900,257.776 30.470,257.703 30.397 C 257.630 30.324,257.477 30.636,257.364 31.089 M245.209 71.097 C 245.278 71.352,245.671 71.587,246.083 71.618 C 246.673 71.663,246.701 71.639,246.213 71.505 C 245.873 71.412,245.480 71.177,245.340 70.984 C 245.171 70.753,245.127 70.791,245.209 71.097 M246.572 82.154 C 246.769 82.280,246.992 82.799,247.066 83.309 C 247.190 84.149,247.207 84.127,247.249 83.076 C 247.286 82.159,247.182 81.918,246.754 81.921 C 246.403 81.924,246.339 82.006,246.572 82.154 M131.464 86.708 C 131.466 87.558,131.526 87.869,131.597 87.399 C 131.668 86.929,131.667 86.234,131.593 85.854 C 131.520 85.473,131.462 85.858,131.464 86.708 M131.763 90.417 C 131.766 91.097,131.829 91.339,131.903 90.955 C 131.977 90.570,131.974 90.014,131.897 89.718 C 131.820 89.423,131.759 89.737,131.763 90.417 M211.170 91.886 C 211.119 92.915,210.938 92.938,209.912 92.049 C 209.178 91.413,209.182 91.430,209.965 92.270 C 210.913 93.287,211.593 93.040,211.351 91.767 C 211.224 91.096,211.209 91.105,211.170 91.886 M143.829 95.981 C 143.831 96.832,143.891 97.143,143.962 96.673 C 144.033 96.203,144.031 95.507,143.958 95.127 C 143.885 94.747,143.826 95.131,143.829 95.981 M145.102 96.832 L 144.513 97.527 145.189 96.956 C 145.570 96.634,146.030 96.486,146.242 96.617 C 146.482 96.766,146.538 96.721,146.397 96.493 C 146.074 95.970,145.762 96.052,145.102 96.832 M147.278 103.375 C 147.292 106.103,147.384 106.774,147.759 106.876 C 148.090 106.966,148.115 106.926,147.848 106.736 C 147.608 106.565,147.435 105.306,147.366 103.235 L 147.260 100.000 147.278 103.375 M242.408 102.837 C 242.695 102.913,242.989 103.279,243.061 103.651 C 243.169 104.208,243.200 104.177,243.235 103.478 C 243.269 102.780,243.152 102.634,242.581 102.663 C 242.088 102.689,242.038 102.739,242.408 102.837 M201.308 105.719 C 201.308 106.314,201.372 106.557,201.450 106.260 C 201.527 105.962,201.527 105.475,201.450 105.178 C 201.372 104.880,201.308 105.124,201.308 105.719 M127.768 110.510 C 127.769 111.700,127.825 112.149,127.892 111.508 C 127.959 110.866,127.958 109.893,127.889 109.344 C 127.821 108.795,127.766 109.320,127.768 110.510 M237.273 113.731 C 236.446 114.594,236.408 115.307,237.190 115.297 C 237.413 115.294,237.377 115.178,237.100 115.002 C 236.717 114.760,236.790 114.557,237.544 113.770 C 238.040 113.252,238.377 112.828,238.292 112.828 C 238.207 112.828,237.748 113.234,237.273 113.731 M152.372 116.151 L 151.623 117.002 152.550 116.229 C 153.060 115.804,153.536 115.421,153.606 115.379 C 153.677 115.336,153.597 115.301,153.428 115.301 C 153.260 115.301,152.784 115.684,152.372 116.151 M195.126 118.083 C 195.126 118.679,195.189 118.922,195.267 118.624 C 195.345 118.327,195.345 117.840,195.267 117.543 C 195.189 117.245,195.126 117.488,195.126 118.083 M192.575 120.325 C 192.276 120.942,192.286 120.961,192.666 120.492 C 193.069 119.995,193.127 119.995,193.677 120.492 C 194.249 121.009,194.249 121.006,193.682 120.325 C 193.364 119.942,193.060 119.629,193.008 119.629 C 192.955 119.629,192.760 119.942,192.575 120.325 M195.435 120.556 C 195.435 121.151,195.499 121.395,195.576 121.097 C 195.654 120.800,195.654 120.313,195.576 120.015 C 195.499 119.718,195.435 119.961,195.435 120.556 M126.514 122.720 C 126.514 123.485,126.574 123.798,126.648 123.416 C 126.722 123.033,126.722 122.407,126.648 122.025 C 126.574 121.642,126.514 121.955,126.514 122.720 M154.961 123.648 C 154.961 124.583,155.019 124.965,155.090 124.498 C 155.161 124.030,155.161 123.265,155.090 122.798 C 155.019 122.330,154.961 122.713,154.961 123.648 M155.921 127.743 L 155.332 128.439 156.008 127.868 C 156.389 127.546,156.849 127.398,157.061 127.529 C 157.301 127.677,157.357 127.632,157.217 127.405 C 156.893 126.882,156.581 126.964,155.921 127.743 M157.722 130.757 C 157.722 131.352,157.786 131.596,157.864 131.298 C 157.942 131.001,157.942 130.514,157.864 130.216 C 157.786 129.919,157.722 130.162,157.722 130.757 M157.735 134.158 C 157.735 134.923,157.795 135.236,157.869 134.853 C 157.943 134.471,157.943 133.845,157.869 133.462 C 157.795 133.080,157.735 133.393,157.735 134.158 M230.434 136.090 L 229.212 137.403 230.526 136.181 C 231.747 135.045,231.981 134.776,231.747 134.776 C 231.697 134.776,231.106 135.367,230.434 136.090 M185.818 137.094 C 185.793 137.434,185.701 138.060,185.613 138.485 L 185.454 139.258 185.785 138.500 C 185.967 138.083,186.060 137.457,185.990 137.109 C 185.868 136.492,185.864 136.492,185.818 137.094 M160.223 142.813 C 160.223 143.918,160.279 144.370,160.347 143.818 C 160.416 143.265,160.416 142.361,160.347 141.808 C 160.279 141.256,160.223 141.708,160.223 142.813 M159.892 146.986 C 159.896 147.666,159.959 147.908,160.033 147.523 C 160.107 147.139,160.104 146.583,160.027 146.287 C 159.950 145.991,159.889 146.306,159.892 146.986 M181.531 146.986 C 181.534 147.666,181.598 147.908,181.671 147.523 C 181.745 147.139,181.743 146.583,181.665 146.287 C 181.588 145.991,181.527 146.306,181.531 146.986 M125.637 148.500 C 125.535 148.908,125.513 149.569,125.589 149.969 C 125.687 150.485,125.739 150.378,125.769 149.598 C 125.792 148.995,125.978 148.334,126.182 148.130 C 126.464 147.848,126.466 147.759,126.188 147.759 C 125.987 147.759,125.739 148.092,125.637 148.500 M226.201 149.214 C 226.586 149.288,227.142 149.285,227.438 149.208 C 227.733 149.130,227.419 149.070,226.739 149.073 C 226.059 149.077,225.817 149.140,226.201 149.214 M181.840 151.623 C 181.843 152.303,181.907 152.545,181.981 152.160 C 182.055 151.776,182.052 151.219,181.974 150.924 C 181.897 150.628,181.837 150.943,181.840 151.623 M162.668 151.777 C 162.668 152.372,162.732 152.616,162.810 152.318 C 162.887 152.021,162.887 151.534,162.810 151.236 C 162.732 150.939,162.668 151.182,162.668 151.777 M178.433 157.032 C 178.433 157.628,178.497 157.871,178.575 157.573 C 178.653 157.276,178.653 156.789,178.575 156.491 C 178.497 156.194,178.433 156.437,178.433 157.032 M298.435 162.056 L 297.527 163.060 298.532 162.152 C 299.084 161.653,299.536 161.201,299.536 161.148 C 299.536 160.909,299.281 161.119,298.435 162.056 M221.730 162.174 C 221.838 162.281,221.784 162.663,221.610 163.024 C 221.304 163.660,221.309 163.662,221.776 163.078 C 222.348 162.364,222.390 161.978,221.896 161.978 C 221.698 161.978,221.623 162.066,221.730 162.174 M127.788 168.598 C 127.696 168.839,127.679 169.430,127.751 169.912 C 127.860 170.636,127.891 170.583,127.929 169.608 C 127.971 168.541,128.042 168.447,128.671 168.624 C 129.215 168.777,129.266 168.749,128.903 168.495 C 128.272 168.054,127.987 168.080,127.788 168.598 M290.572 170.601 C 290.572 171.030,291.748 171.640,292.212 171.451 C 292.420 171.366,292.355 171.290,292.062 171.276 C 291.777 171.263,291.325 171.033,291.058 170.766 C 290.790 170.499,290.572 170.425,290.572 170.601 M289.166 175.657 L 287.944 176.971 289.258 175.749 C 289.981 175.077,290.572 174.485,290.572 174.435 C 290.572 174.201,290.303 174.435,289.166 175.657 M173.195 179.753 C 173.197 180.603,173.257 180.914,173.328 180.444 C 173.400 179.974,173.398 179.279,173.324 178.898 C 173.251 178.518,173.193 178.903,173.195 179.753 M128.981 179.753 C 128.984 180.433,129.047 180.675,129.121 180.290 C 129.195 179.906,129.192 179.349,129.115 179.054 C 129.038 178.758,128.977 179.073,128.981 179.753 M210.032 185.240 L 208.810 186.553 210.124 185.331 C 211.345 184.195,211.579 183.926,211.346 183.926 C 211.295 183.926,210.704 184.517,210.032 185.240 M240.636 184.874 C 240.524 185.056,240.237 185.130,240.000 185.039 C 239.762 184.947,239.567 185.007,239.567 185.172 C 239.567 185.633,240.373 185.526,240.804 185.008 C 241.015 184.753,241.110 184.544,241.014 184.544 C 240.919 184.544,240.748 184.693,240.636 184.874 M233.217 189.202 C 233.104 189.384,232.714 189.654,232.349 189.801 C 231.896 189.984,231.841 190.075,232.178 190.089 C 232.449 190.099,232.923 189.830,233.230 189.490 C 233.538 189.150,233.707 188.872,233.606 188.872 C 233.504 188.872,233.329 189.021,233.217 189.202 M171.035 190.726 C 171.035 191.662,171.093 192.044,171.164 191.577 C 171.235 191.109,171.235 190.344,171.164 189.876 C 171.093 189.409,171.035 189.791,171.035 190.726 M227.647 191.422 L 226.739 192.427 227.743 191.519 C 228.296 191.019,228.748 190.567,228.748 190.514 C 228.748 190.275,228.493 190.485,227.647 191.422 M204.620 194.049 L 203.555 195.209 204.714 194.143 C 205.793 193.152,206.015 192.890,205.779 192.890 C 205.728 192.890,205.206 193.412,204.620 194.049 M168.851 195.981 C 168.851 196.577,168.914 196.820,168.992 196.522 C 169.070 196.225,169.070 195.738,168.992 195.440 C 168.914 195.143,168.851 195.386,168.851 195.981 M201.523 198.841 C 201.860 199.288,201.860 199.475,201.523 199.923 C 201.135 200.438,201.144 200.438,201.706 199.923 C 202.287 199.390,202.287 199.373,201.706 198.841 C 201.144 198.326,201.135 198.326,201.523 198.841 M164.745 200.394 C 164.896 201.668,164.902 201.674,165.007 200.656 C 165.066 200.082,164.997 199.494,164.853 199.351 C 164.709 199.207,164.660 199.676,164.745 200.394 M266.288 199.721 C 266.173 199.907,266.303 200.255,266.577 200.494 C 266.852 200.734,266.938 200.762,266.769 200.558 C 266.323 200.020,266.387 199.755,267.002 199.595 C 267.489 199.467,267.491 199.450,267.020 199.418 C 266.732 199.398,266.403 199.534,266.288 199.721 M198.145 203.555 C 196.879 204.830,195.912 205.873,195.997 205.873 C 196.082 205.873,197.188 204.830,198.454 203.555 C 199.721 202.280,200.688 201.236,200.603 201.236 C 200.518 201.236,199.412 202.280,198.145 203.555 M168.554 203.400 C 168.554 204.165,168.614 204.478,168.688 204.096 C 168.762 203.713,168.762 203.087,168.688 202.705 C 168.614 202.322,168.554 202.635,168.554 203.400 M166.394 207.883 C 166.397 208.733,166.457 209.044,166.528 208.574 C 166.599 208.104,166.597 207.408,166.524 207.028 C 166.450 206.648,166.392 207.032,166.394 207.883 M205.857 207.960 L 204.791 209.119 205.951 208.054 C 207.029 207.062,207.252 206.801,207.016 206.801 C 206.964 206.801,206.443 207.322,205.857 207.960 M102.669 209.737 C 103.626 210.757,104.485 211.801,104.576 212.056 C 104.722 212.461,104.746 212.460,104.767 212.046 C 104.780 211.786,103.922 210.742,102.859 209.728 L 100.927 207.883 102.669 209.737 M102.422 212.849 C 102.320 213.116,102.402 213.498,102.605 213.699 C 102.889 213.982,102.924 213.935,102.755 213.493 C 102.620 213.137,102.701 212.817,102.969 212.647 C 103.291 212.443,103.300 212.373,103.004 212.369 C 102.786 212.367,102.524 212.583,102.422 212.849 M166.096 214.219 C 166.096 215.325,166.152 215.777,166.221 215.224 C 166.289 214.672,166.289 213.767,166.221 213.215 C 166.152 212.662,166.096 213.114,166.096 214.219 M190.862 213.679 L 189.954 214.683 190.958 213.775 C 191.511 213.276,191.963 212.824,191.963 212.771 C 191.963 212.532,191.708 212.742,190.862 213.679 M164.258 220.237 C 164.162 220.487,164.156 220.869,164.243 221.087 C 164.331 221.305,164.413 221.180,164.427 220.809 C 164.445 220.318,164.683 220.099,165.301 220.005 L 166.151 219.876 165.292 219.830 C 164.787 219.803,164.360 219.971,164.258 220.237 M107.573 220.189 C 107.573 220.243,108.026 220.695,108.578 221.194 L 109.583 222.102 108.675 221.097 C 107.828 220.161,107.573 219.951,107.573 220.189 M192.412 221.406 L 191.190 222.720 192.504 221.498 C 193.726 220.362,193.960 220.093,193.726 220.093 C 193.675 220.093,193.084 220.684,192.412 221.406 M163.905 225.348 C 163.905 225.943,163.968 226.186,164.046 225.889 C 164.124 225.591,164.124 225.104,164.046 224.807 C 163.968 224.509,163.905 224.753,163.905 225.348 M180.042 226.043 L 179.134 227.048 180.139 226.140 C 180.692 225.641,181.144 225.189,181.144 225.135 C 181.144 224.897,180.889 225.107,180.042 226.043 M189.086 225.821 C 188.609 226.241,188.342 226.584,188.491 226.584 C 188.641 226.584,189.091 226.236,189.490 225.811 C 190.414 224.828,190.210 224.833,189.086 225.821 M186.382 227.743 L 185.317 228.903 186.476 227.837 C 187.555 226.846,187.777 226.584,187.541 226.584 C 187.490 226.584,186.968 227.106,186.382 227.743 M163.596 228.748 C 163.596 229.343,163.659 229.587,163.737 229.289 C 163.815 228.991,163.815 228.505,163.737 228.207 C 163.659 227.910,163.596 228.153,163.596 228.748 M159.243 229.727 C 159.217 230.181,159.116 230.807,159.018 231.118 C 158.850 231.654,158.860 231.655,159.193 231.136 C 159.386 230.834,159.487 230.208,159.417 229.745 L 159.289 228.903 159.243 229.727 M162.696 236.167 C 162.696 237.272,162.752 237.724,162.820 237.172 C 162.889 236.619,162.889 235.715,162.820 235.162 C 162.752 234.610,162.696 235.062,162.696 236.167 M220.595 235.073 C 220.697 235.339,220.591 235.798,220.359 236.094 C 219.978 236.579,219.990 236.590,220.479 236.206 C 221.077 235.738,221.187 235.070,220.715 234.778 C 220.539 234.669,220.488 234.795,220.595 235.073 M281.845 239.791 C 282.400 239.860,283.235 239.859,283.700 239.788 C 284.164 239.718,283.709 239.661,282.689 239.663 C 281.669 239.665,281.289 239.722,281.845 239.791 M168.144 241.036 L 167.079 242.195 168.238 241.129 C 169.317 240.138,169.539 239.876,169.303 239.876 C 169.252 239.876,168.730 240.398,168.144 241.036 M270.093 240.095 C 270.475 240.168,271.101 240.168,271.484 240.095 C 271.866 240.021,271.553 239.961,270.788 239.961 C 270.023 239.961,269.710 240.021,270.093 240.095 M157.722 241.113 C 157.722 241.708,157.786 241.951,157.864 241.654 C 157.942 241.356,157.942 240.869,157.864 240.572 C 157.786 240.274,157.722 240.518,157.722 241.113 M259.586 241.022 C 259.971 241.096,260.527 241.093,260.823 241.016 C 261.118 240.939,260.804 240.878,260.124 240.882 C 259.444 240.885,259.202 240.948,259.586 241.022 M242.122 241.953 C 242.592 242.024,243.287 242.022,243.667 241.949 C 244.048 241.875,243.663 241.817,242.813 241.819 C 241.963 241.822,241.652 241.882,242.122 241.953 M232.825 242.871 C 233.462 242.945,234.027 243.202,234.107 243.455 C 234.198 243.744,234.232 243.709,234.201 243.360 C 234.164 242.943,233.859 242.804,232.919 242.776 L 231.685 242.739 232.825 242.871 M113.524 244.417 C 113.821 244.495,114.308 244.495,114.606 244.417 C 114.903 244.339,114.660 244.276,114.065 244.276 C 113.470 244.276,113.226 244.339,113.524 244.417 M125.348 244.513 C 125.243 244.683,124.365 244.847,123.398 244.878 L 121.638 244.934 123.168 245.052 C 124.009 245.117,124.983 245.030,125.332 244.858 C 125.681 244.686,126.244 244.484,126.584 244.410 C 127.044 244.310,126.989 244.267,126.371 244.240 C 125.913 244.220,125.453 244.343,125.348 244.513 M117.697 244.737 C 118.250 244.805,119.154 244.805,119.706 244.737 C 120.259 244.668,119.807 244.612,118.702 244.612 C 117.597 244.612,117.145 244.668,117.697 244.737 M208.964 245.745 C 209.219 245.912,209.764 246.051,210.175 246.054 C 211.167 246.060,210.916 245.885,209.583 245.640 C 208.822 245.500,208.638 245.531,208.964 245.745 M186.167 245.963 C 186.464 246.040,186.951 246.040,187.249 245.963 C 187.546 245.885,187.303 245.821,186.708 245.821 C 186.113 245.821,185.869 245.885,186.167 245.963 M182.618 246.283 C 183.173 246.352,184.008 246.350,184.472 246.280 C 184.937 246.209,184.482 246.153,183.462 246.155 C 182.442 246.156,182.062 246.214,182.618 246.283 M98.068 247.508 C 98.366 247.586,98.852 247.586,99.150 247.508 C 99.447 247.431,99.204 247.367,98.609 247.367 C 98.014 247.367,97.770 247.431,98.068 247.508 M193.122 248.132 C 193.505 248.205,194.131 248.205,194.513 248.132 C 194.896 248.058,194.583 247.998,193.818 247.998 C 193.053 247.998,192.740 248.058,193.122 248.132 M148.710 251.299 C 148.423 251.476,148.457 251.587,148.843 251.735 C 149.127 251.845,149.487 251.856,149.641 251.760 C 149.796 251.665,149.923 251.734,149.923 251.914 C 149.923 252.094,150.073 252.241,150.258 252.241 C 150.800 252.241,150.409 251.548,149.725 251.294 C 149.378 251.166,148.922 251.168,148.710 251.299 M128.200 253.701 C 128.749 253.769,129.723 253.770,130.364 253.703 C 131.005 253.636,130.556 253.580,129.366 253.579 C 128.176 253.578,127.651 253.632,128.200 253.701 M166.620 254.555 C 166.045 255.147,165.636 255.680,165.709 255.738 C 165.782 255.796,166.311 255.311,166.883 254.661 C 168.183 253.182,168.015 253.115,166.620 254.555 M170.788 254.405 C 169.933 254.623,169.921 254.643,170.634 254.673 C 171.059 254.690,171.615 254.570,171.870 254.405 C 172.396 254.065,172.124 254.065,170.788 254.405 M137.403 255.517 C 138.826 255.748,141.199 255.779,141.066 255.564 C 140.986 255.437,139.991 255.351,138.853 255.374 C 137.716 255.398,137.063 255.462,137.403 255.517 M141.963 256.164 C 142.260 256.241,142.747 256.241,143.045 256.164 C 143.342 256.086,143.099 256.022,142.504 256.022 C 141.909 256.022,141.665 256.086,141.963 256.164 M172.875 258.327 C 173.172 258.405,173.659 258.405,173.957 258.327 C 174.254 258.250,174.011 258.186,173.416 258.186 C 172.821 258.186,172.577 258.250,172.875 258.327 M228.058 261.430 C 228.614 261.498,229.448 261.497,229.913 261.426 C 230.377 261.356,229.923 261.300,228.903 261.301 C 227.883 261.303,227.502 261.361,228.058 261.430 M200.927 266.132 C 200.927 266.291,200.475 266.478,199.923 266.546 L 198.918 266.671 200.044 266.720 C 200.795 266.753,201.230 266.615,201.348 266.306 C 201.446 266.051,201.391 265.842,201.227 265.842 C 201.062 265.842,200.927 265.973,200.927 266.132 M209.274 283.868 C 209.274 283.921,209.726 284.373,210.278 284.873 L 211.283 285.781 210.375 284.776 C 209.529 283.839,209.274 283.629,209.274 283.868 M216.383 290.263 L 215.301 290.490 216.461 290.531 C 217.098 290.554,217.620 290.433,217.620 290.263 C 217.620 290.093,217.585 289.972,217.543 289.994 C 217.500 290.017,216.978 290.137,216.383 290.263 " stroke="none" fill="#6c6c6c" fill-rule="evenodd"></path></g></svg>